<?xml version="1.0" encoding="UTF-8"?><svg id="Layer_1" xmlns="http://www.w3.org/2000/svg" viewBox="0 0 64 64"><defs><style>.cls-1{fill:#000;}.cls-1,.cls-2{stroke-width:0px;}.cls-2{fill:#fff;}</style></defs><g id="_28dyCB.tif"><path class="cls-2" d="M40.3,34.69c3.75,1.77,4.18,4.37,1.2,7.32-1.41,1.4-2.86,2.76-4.39,4.23,1.02.84,1.79,1.48,2.76,2.28.7-1.6,1.37-2.89,1.83-4.26.5-1.49,1.3-1.74,2.69-1.19,1.33.52,2.74.85,4.11,1.27.17-.37.29-.52.29-.66-.03-1.19-.07-2.39-.15-3.58-.14-2.17-.16-2.18,2.05-2.5,1.36-.2,2.72-.39,4.42-.63-.97-1.67-1.66-3.01-2.5-4.26-.71-1.05-.59-1.7.53-2.33,1.34-.75,2.6-1.64,4.19-2.66-1.69-1.13-3.01-2.07-4.37-2.91-.92-.57-1.17-1.16-.49-2.1.66-.92,1.2-1.93,1.83-2.88.62-.94.52-1.46-.71-1.61-1.24-.14-2.46-.47-3.7-.57-1.19-.1-1.61-.59-1.46-1.77.18-1.48.25-2.97.38-4.75-1.27.32-2.25.58-3.23.82-3.97.97-3.07,1.55-4.67-2.31-.66-1.59-1.9-1.93-3.3-.88-.3.23-.58.49-.87.73-2.51,2.08-1.86,1.99-4.13,0-.37-.32-.71-.69-1.12-.95-1.13-.71-2.35-.33-2.89.88-.29.64-.62,1.27-.82,1.94-.4,1.34-1.12,1.64-2.44,1.14-1.42-.54-2.93-.85-4.67-1.34.1,1.74.07,3.1.28,4.42.26,1.62-.3,2.28-1.93,2.36-1.42.07-2.82.39-4.57.65.93,1.6,1.59,2.89,2.41,4.08.79,1.15.72,1.87-.58,2.56-1.31.69-2.51,1.59-3.98,2.53.86.6,1.41.99,2.09,1.47,1.32-1.36,2.56-2.65,3.82-3.93,1.03-1.05,2.27-1.32,3.73-1.15.61.07,1.44-.17,1.9-.58,1.54-1.37,2.91-2.92,4.43-4.32,1.23-1.14,2.71-1.35,4.22-.58,1.51.77,2.15,2.08,2,3.77-.04.42-.12.84-.17,1.24,2.84,1.25,3.32,2.13,3.03,5.51,2.81,1.31,3.24,2.12,2.96,5.5ZM23.67,35.46c-.83,1.63-1.4,2.88-2.1,4.05-.15.25-.8.21-1.21.3,0-.38-.14-.9.05-1.12,1.51-1.71,1.39-3.52.56-5.47-.15-.36.03-.87.06-1.3.42.13.96.13,1.24.4,1.57,1.49,3.08,3.06,4.63,4.58,1.19,1.16,2.48,1.27,3.44.34.97-.94.92-2.27-.23-3.44-2.4-2.44-4.81-4.86-7.25-7.25-1.31-1.28-2.45-1.23-3.8.09-1.47,1.44-2.87,2.97-4.39,4.35-1.86,1.69-2.2,3.57-1.3,5.88.21.53,0,1.5-.38,1.93-1.75,1.92-3.6,3.76-5.5,5.54-1.02.96-1.09,1.64-.04,2.64,2.59,2.47,5.08,5.04,7.61,7.57,1.74,1.74,3.36,1.73,5.11-.02,1.23-1.23,2.49-2.42,3.67-3.69.77-.83,1.37-1.16,2.42-.28,1.26,1.05,2.9,1.3,4.2.17,1.54-1.33,2.83-2.94,4.27-4.47-2.43-1-3.23-2.9-2.54-5.44-1.14-.51-2.15-.97-3.16-1.43-1.1-.5-2.3-.85-3.26-1.54-.85-.61-1.43-1.6-2.1-2.39ZM41.92,38.14c-.25-.33-.6-1.23-1.21-1.47-.69-.27-1.85-.23-2.38.2-1.58,1.3-3.06,2.77-4.35,4.35-.42.51-.43,1.72-.11,2.36.28.56,1.25,1.01,1.95,1.08,1.29.13,6.05-4.77,6.1-6.52ZM27.27,28.53c1.67-1.64,3.48-3.33,5.19-5.12.86-.9.79-2.02-.08-2.92-.93-.96-2.1-1.01-3.05-.13-1.78,1.64-3.45,3.41-5.15,5.12,1.06,1.05,2.05,2.03,3.1,3.06ZM31.66,39.14c.66-.09,1.75.08,2.3-.38,1.62-1.34,3.13-2.84,4.49-4.45,1.1-1.3.17-3.22-1.48-3.42-1.28-.16-4.39,2.55-4.54,3.82-.15,1.34-.46,2.66-.77,4.43ZM28.21,29.71c1.18,1.14,2.19,2.11,3.35,3.23,1.29-1.34,2.64-2.66,3.89-4.06.84-.95.76-2.05-.11-2.92-.93-.93-2.09-.95-3.07-.09-1.38,1.2-2.67,2.52-4.06,3.85Z"/><path class="cls-1" d="M40.3,34.69c.28-3.38-.16-4.19-2.96-5.5.29-3.38-.19-4.26-3.03-5.51.06-.4.13-.82.17-1.24.16-1.69-.49-2.99-2-3.77-1.51-.78-2.99-.57-4.22.58-1.51,1.4-2.89,2.95-4.43,4.32-.46.41-1.28.65-1.9.58-1.46-.16-2.7.11-3.73,1.15-1.26,1.27-2.49,2.56-3.82,3.93-.68-.48-1.23-.87-2.09-1.47,1.47-.95,2.67-1.84,3.98-2.53,1.3-.69,1.37-1.41.58-2.56-.82-1.19-1.48-2.48-2.41-4.08,1.75-.26,3.16-.58,4.57-.65,1.63-.08,2.19-.73,1.93-2.36-.21-1.32-.18-2.68-.28-4.42,1.74.49,3.24.8,4.67,1.34,1.32.5,2.04.19,2.44-1.14.2-.67.54-1.3.82-1.94.54-1.21,1.76-1.59,2.89-.88.41.26.75.62,1.12.95,2.26,2,1.62,2.09,4.13,0,.29-.24.57-.5.87-.73,1.39-1.05,2.64-.71,3.3.88,1.59,3.86.7,3.28,4.67,2.31.98-.24,1.95-.5,3.23-.82-.14,1.79-.2,3.28-.38,4.75-.15,1.18.28,1.68,1.46,1.77,1.24.1,2.46.42,3.7.57,1.23.14,1.34.67.71,1.61-.63.95-1.17,1.96-1.83,2.88-.68.94-.43,1.53.49,2.1,1.37.85,2.68,1.78,4.37,2.91-1.59,1.02-2.85,1.91-4.19,2.66-1.12.63-1.25,1.27-.53,2.33.84,1.24,1.53,2.59,2.5,4.26-1.71.24-3.07.42-4.42.63-2.2.33-2.19.33-2.05,2.5.08,1.19.11,2.38.15,3.58,0,.14-.12.29-.29.66-1.36-.41-2.77-.74-4.11-1.27-1.39-.55-2.2-.29-2.69,1.19-.46,1.37-1.13,2.67-1.83,4.26-.97-.8-1.73-1.43-2.76-2.28,1.53-1.48,2.98-2.84,4.39-4.23,2.98-2.95,2.55-5.55-1.2-7.32Z"/><path class="cls-1" d="M23.67,35.46c.67.79,1.25,1.78,2.1,2.39.96.69,2.16,1.04,3.26,1.54,1.01.46,2.02.92,3.16,1.43-.7,2.54.11,4.44,2.54,5.44-1.44,1.54-2.74,3.15-4.27,4.47-1.3,1.12-2.94.88-4.2-.17-1.06-.88-1.65-.55-2.42.28-1.18,1.27-2.44,2.47-3.67,3.69-1.75,1.75-3.37,1.76-5.11.02-2.53-2.53-5.02-5.1-7.61-7.57-1.05-1.01-.98-1.69.04-2.64,1.9-1.78,3.75-3.62,5.5-5.54.39-.43.59-1.4.38-1.93-.9-2.3-.56-4.19,1.3-5.88,1.52-1.38,2.92-2.91,4.39-4.35,1.35-1.33,2.49-1.37,3.8-.09,2.44,2.39,4.85,4.81,7.25,7.25,1.15,1.17,1.21,2.5.23,3.44-.96.93-2.26.82-3.44-.34-1.55-1.52-3.05-3.09-4.63-4.58-.29-.27-.82-.27-1.24-.4-.03.44-.21.94-.06,1.3.83,1.94.95,3.76-.56,5.47-.19.22-.04.74-.05,1.12.42-.09,1.06-.04,1.21-.3.71-1.17,1.27-2.42,2.1-4.05Z"/><path class="cls-1" d="M41.92,38.14c-.05,1.75-4.81,6.64-6.1,6.52-.71-.07-1.67-.52-1.95-1.08-.32-.64-.31-1.85.11-2.36,1.3-1.58,2.77-3.05,4.35-4.35.53-.43,1.69-.46,2.38-.2.61.24.96,1.14,1.21,1.47Z"/><path class="cls-1" d="M27.27,28.53c-1.05-1.03-2.04-2.01-3.1-3.06,1.7-1.7,3.37-3.48,5.15-5.12.95-.88,2.12-.83,3.05.13.87.9.94,2.02.08,2.92-1.7,1.79-3.51,3.48-5.19,5.12Z"/><path class="cls-1" d="M31.66,39.14c.32-1.77.62-3.09.77-4.43.14-1.27,3.26-3.98,4.54-3.82,1.65.2,2.58,2.12,1.48,3.42-1.36,1.61-2.87,3.11-4.49,4.45-.56.46-1.64.29-2.3.38Z"/><path class="cls-1" d="M28.21,29.71c1.4-1.33,2.68-2.65,4.06-3.85.99-.86,2.14-.84,3.07.09.87.87.96,1.98.11,2.92-1.25,1.4-2.6,2.72-3.89,4.06-1.17-1.12-2.17-2.09-3.35-3.23Z"/></g></svg>