<?xml version="1.0" encoding="UTF-8"?><svg id="Layer_1" xmlns="http://www.w3.org/2000/svg" viewBox="0 0 64 64"><defs><style>.cls-1{fill:#000;stroke-width:0px;}</style></defs><g id="cIhTH1.tif"><path class="cls-1" d="M39.01,11.43c4.82-.75,7.45,1.5,7.7,6.43.04.76.47,1.5.69,2.26.55,1.86,1.43,3.7,1.55,5.58.19,3.17-2.42,4.87-5.43,3.83-.61-.21-1.21-.52-1.75-.88-2.33-1.58-3.88-1.41-6.37.09-1.4.84-3.12,1.42-4.74,1.56-4.32.37-8.24-.94-11.49-3.84-3.19-2.85-2.44-7.15,1.39-9.04.62-.31,1.24-.99,1.48-1.65.92-2.4,3.01-3.96,5.97-4.1,1.04-.05,1.69-.25,2.32-1.29,1.44-2.42,6.18-2.41,7.92-.13.29.38.52.81.77,1.2ZM21.26,19.18c-2.79,1.33-3.2,4.11-.5,6.27,2.59,2.08,5.61,3.11,8.95,3.08,1.77-.02,3.46-.26,5-1.52-1.06-.64-2.02-1.23-2.96-1.8-2.54,1.99-3.94,2.11-6.18-.17-1.63-1.66-2.81-3.77-4.31-5.86ZM29.27,13.45c-3.23-.19-5.19,1.03-5.4,3.1,2.61,2,5.04,3.87,7.88,6.05.17-1.31.64-2.41.34-3.24-.72-1.98-1.8-3.82-2.83-5.91ZM40.87,25.01c2.07-1,3.11-2.66,3.69-4.65.09-.3.02-.85-.19-1.01-1.41-1.11-2.87-2.15-4.32-3.2-.13,3.19-.61,6.1.82,8.87ZM38.66,25.72c-.35-3.48-.69-6.86-1.03-10.24-1.11,1.26-1.95,2.67-2.7,4.13-.11.22.16.69.33,1,.88,1.65,1.79,3.29,2.81,5.15,0,0,.41-.04.59-.05ZM42.3,26.85c.52.29,1.1.72,1.75.95,1.96.68,3.29-.24,3.19-2.33-.06-1.25-.48-2.48-.74-3.72-1.45,1.76-2.75,3.34-4.2,5.1ZM30.15,24.46c.02-.19.05-.38.07-.58-2-1.66-4-3.33-6-4.99-.12.14-.25.27-.37.41.64,2.35,2.11,4.13,4.23,5.29.52.28,1.38-.07,2.08-.13ZM39.3,13.77c1.87,1.1,3.57,2.11,5.38,3.17-.57-3.51-2.87-4.92-5.38-3.17ZM35.7,14.46c-1.51-.32-2.75-.58-4.43-.94.83,1.76,1.46,3.1,2.22,4.7.82-1.4,1.44-2.46,2.21-3.76ZM31.55,11.65c1.97.46,3.8.89,5.64,1.31.13-.2.26-.4.39-.6-.69-.63-1.29-1.55-2.09-1.81-1.33-.42-2.79-.36-3.93,1.09ZM35.28,25.2c.15-.12.3-.24.45-.36-.57-1-1.14-1.99-1.85-3.23-.48.9-.75,1.41-1.1,2.06.88.54,1.69,1.04,2.5,1.54Z"/><path class="cls-1" d="M13.24,37.47c.4.18.5.25.6.26q3.47.38,4.21,3.85c.32,1.5.6,3,.98,4.49.45,1.78,1.54,2.69,3.3,2.55,3.16-.27,6.31-.65,9.45-1.07.54-.07,1.16-.45,1.5-.88.7-.89,1.21-1.94,1.86-2.87.44-.64,1.25-1.79,1.46-1.7,1.28.56.49,1.57.17,2.35-1.26,3.07-3.08,5.48-6.92,5.08.41,1.57.97,2.91,1.06,4.29.09,1.32-.25,2.69-.54,4.01-.07.3-.71.48-1.09.71-.18-.44-.62-.98-.5-1.32.73-2.04.48-3.96-.37-5.9-.45-1.03-1-1.59-2.24-1.27-1,.26-2.05.3-3.09.4-3.14.31-5.27-1.26-5.94-4.35-.45-2.08-.91-4.17-1.41-6.47-.63,0-1.27.05-1.91,0-1.82-.16-2.88-1.58-2.09-3.22,1.8-3.74,2.03-7.49,1.79-11.65-.6-10.43,7.9-19.14,18.34-19.28,2.54-.03,5.17.23,7.61.9,7.38,2.04,10.89,7.54,12.46,14.65,1.18,5.33.4,10.42-1.56,15.43-1.21,3.1-2.4,6.22-3.39,9.4-1.07,3.45-1.09,7.01-.41,10.57.04.22.15.46.09.64-.16.51-.39.99-.59,1.48-.38-.37-1.06-.72-1.09-1.12-.23-2.88-.8-5.84-.34-8.62.61-3.68,1.89-7.28,3.21-10.8,1.64-4.39,3.22-8.73,2.76-13.53-.33-3.36-1.13-6.58-2.8-9.53-3.19-5.62-8.42-7.52-14.47-7.77-11.84-.48-20.4,10.11-17.62,21.66.19.78.08,1.73-.18,2.5-.69,2.06-1.53,4.06-2.33,6.14Z"/></g></svg>