<?xml version="1.0" encoding="UTF-8"?><svg id="Layer_1" xmlns="http://www.w3.org/2000/svg" viewBox="0 0 64 64"><defs><style>.cls-1{fill:#000;}.cls-1,.cls-2{stroke-width:0px;}.cls-2{fill:#fff;}</style></defs><g id="c2JE3B.tif"><path class="cls-2" d="M24.77,55.91c-3.53-3.82-3.6-7.08-2.81-10.78.41-1.96,1.11-3.86,1.76-6.09.87.8,1.81,1.65,2.83,2.59.32-.54.79-1.03.89-1.58.32-1.74.62-3.49.7-5.25.14-3.1,1.87-5.61,4.5-6.22-.34,3.75-.02,5.49,2.86,8.37,1.51,1.51,2.08,3.96,3.05,6,.18.37.23.8.34,1.2.15.03.3.06.45.08.47-1.14.93-2.29,1.49-3.67,2,5.28,3.14,10.29-1.05,15.03,4.67-1.84,8.09-4.92,9.05-9.89.54-2.79.56-5.78.21-8.61-.36-2.91-1.44-5.73-2.2-8.58-.16.04-.31.09-.47.13-.56,2.19-.55,4.67-3.04,6.06-.15-.44-.31-.74-.34-1.05-.66-5.37-3.03-9.82-7.05-13.44-1.85-1.66-2.94-3.8-3.11-6.29-.13-1.97-.03-3.96-.03-5.85-3.45,1.12-6.18,4.04-6.87,7.99-.38,2.17-.23,4.43-.39,6.65-.21,2.82-1.03,5.42-3.1,7.76-1.3-2.08-2.55-4-5.19-4.6.88,2.4.1,4.48-.76,6.54-1.42,3.4-2.02,6.94-1.64,10.62.66,6.31,4.09,10.51,9.93,12.85Z"/><path class="cls-1" d="M24.77,55.91c-5.84-2.34-9.27-6.54-9.93-12.85-.38-3.67.21-7.21,1.64-10.62.86-2.06,1.64-4.14.76-6.54,2.64.6,3.89,2.52,5.19,4.6,2.07-2.34,2.89-4.94,3.1-7.76.16-2.21.01-4.47.39-6.65.69-3.96,3.42-6.87,6.87-7.99,0,1.9-.11,3.88.03,5.85.17,2.49,1.27,4.63,3.11,6.29,4.03,3.61,6.39,8.07,7.05,13.44.04.31.2.61.34,1.05,2.49-1.39,2.48-3.87,3.04-6.06.16-.04.31-.09.47-.13.76,2.86,1.85,5.68,2.2,8.58.35,2.83.33,5.82-.21,8.61-.96,4.97-4.38,8.06-9.05,9.89,4.19-4.74,3.05-9.74,1.05-15.03-.56,1.38-1.03,2.52-1.49,3.67-.15-.03-.3-.06-.45-.08-.11-.4-.17-.83-.34-1.2-.97-2.04-1.54-4.49-3.05-6-2.87-2.88-3.2-4.62-2.86-8.37-2.62.61-4.36,3.12-4.5,6.22-.08,1.76-.38,3.51-.7,5.25-.1.56-.57,1.04-.89,1.58-1.03-.94-1.96-1.8-2.83-2.59-.65,2.22-1.35,4.12-1.76,6.09-.78,3.7-.72,6.96,2.81,10.78Z"/></g></svg>