<?xml version="1.0" encoding="UTF-8"?><svg id="Layer_1" xmlns="http://www.w3.org/2000/svg" viewBox="0 0 64 64"><defs><style>.cls-1{fill:#000;stroke-width:0px;}</style></defs><g id="xwPSYu.tif"><path class="cls-1" d="M30.23,39.25c-1.67,2.9-3.31,5.73-5.32,9.2,2.64.34,4.94,1.07,7.12.81,3.3-.39,5.07.78,5.9,4.09-7.6,1.23-14.75.84-20.87-4.57-6.43-5.69-8.78-12.81-7.63-21.55,2.45.94,4.49,1.35,4.48,4.76-.02,5.38,2.31,9.92,6.79,13.6,5.92-10.27,11.72-20.31,18.03-31.25-3.64-.2-6.74-.92-9.6-.38-3.15.6-5.43-.25-8.23-2.53,1.5-.4,2.63-.95,3.77-.97,4.69-.1,9.39-.07,14.09-.02.82,0,1.68.17,2.44.48,8.9,3.69,14.75,14.53,12.98,24-.05.25-.26.47-.57,1.01-2.55-2.17-3.61-4.99-4.3-7.94-.97-4.15-2.89-7.64-6.49-10.48-1.23,2.11-2.35,4.03-3.45,5.92.15.23.21.46.33.5,5.61,1.5,8.65,5.55,10.72,10.65.38.95,1.31,1.77,2.17,2.41,4.03,3.04,5.49,8.14,3.37,12.54-1.34,2.78-3.19,4.84-6.74,4.33-1.38-.2-2.81-.03-4.22-.03-4.68,0-7.93-2.39-7.92-7.06,0-3.65-1.98-4.88-4.45-6.24-.73-.4-1.47-.79-2.37-1.27ZM38.18,25.49c-2.32,4.01-4.65,8.05-7.1,12.28,3.33,2.01,6.49,3.98,9.74,5.81.61.34,1.54.09,2.33.11-.1-.85.1-1.96-.36-2.49-1.6-1.82-3.44-3.42-5.16-5.13-1.29-1.29-2.3-3.09-.84-4.4.95-.85,3.02-.71,4.53-.52.85.11,1.94,1.07,2.27,1.9,1.02,2.54,2.81,2.49,5.04,1.96-1.74-5.08-4.65-8.72-10.45-9.52ZM43.84,35.24c-1.73-1.25-3-2.27-4.41-3.06-.23-.13-1.5.77-1.51,1.21-.05,2.01,3.16,3.51,5.92,1.85Z"/><path class="cls-1" d="M7.09,23.7c2.68-4.64,5.19-8.98,7.88-13.63,6.22,3.83,12.98,6.32,17.13,12.69-1.17-.43-2.33-.86-3.75-1.39-1.5,2.57-2.99,5.13-4.38,7.5.94,1.51,1.76,2.82,2.57,4.13-.28.19-.56.39-.84.58-.78-.84-1.56-1.67-2.31-2.48-.86.2-1.9.81-2.44.52-4.58-2.5-9.08-5.16-13.86-7.92ZM19.08,14.3c-.29-.14-.58-.28-.87-.42-2.82,2.53-6.44,9.82-5.32,11.26,2.1-3.68,4.15-7.25,6.19-10.83ZM14.89,26.23c2.76-.51,7.36-9,6.25-10.86-2.14,3.72-4.2,7.29-6.25,10.86ZM18.15,28.15c.42.26.84.52,1.26.79,2.07-3.61,4.14-7.22,6.22-10.82-.41-.25-.81-.5-1.22-.76-2.15,3.56-4.2,7.18-6.26,10.8Z"/></g></svg>