<?xml version="1.0" encoding="UTF-8"?><svg id="Layer_1" xmlns="http://www.w3.org/2000/svg" viewBox="0 0 64 64"><defs><style>.cls-1{fill:#000;stroke-width:0px;}</style></defs><path class="cls-1" d="M48.15,23.95c.03,2.8-.67,5.42-2.02,7.87-4.3,7.8-8.61,15.59-12.94,23.37-.23.42-.75.98-1.1.95-.43-.03-.95-.54-1.2-.97-4.32-7.75-8.66-15.49-12.88-23.3-3.04-5.62-2.92-11.3.55-16.67,3.34-5.17,8.28-7.6,14.43-7.34,8.42.36,15.07,7.47,15.15,16.08ZM32.09,12.9c-6.1-.03-11.05,4.85-11.13,11-.08,6.02,4.93,11.11,11,11.15,6.12.05,11.16-4.94,11.18-11.06.03-6.08-4.94-11.06-11.05-11.09Z"/><path class="cls-1" d="M33.32,27.44c.6-.64,1.18-1.29,1.79-1.92.48-.5,1.05-.8,1.64-.25.59.56.34,1.13-.17,1.64-1.2,1.2-2.39,2.41-3.61,3.6-.69.68-1.15.67-1.86-.02-1.21-1.19-2.41-2.4-3.61-3.6-.47-.47-.72-1.02-.2-1.57.56-.59,1.14-.35,1.64.15.63.64,1.26,1.28,2.11,1.83,0-.33,0-.66,0-.99,0-2.68,0-5.35,0-8.03,0-.7.15-1.33.97-1.34.88-.02,1.03.64,1.03,1.38,0,2.98,0,5.97,0,8.95.09.06.18.12.27.18Z"/></svg>