<?xml version="1.0" encoding="UTF-8"?><svg id="Layer_1" xmlns="http://www.w3.org/2000/svg" viewBox="0 0 64 64"><defs><style>.cls-1{fill:#000;}.cls-1,.cls-2{stroke-width:0px;}.cls-2{fill:#fff;}</style></defs><g id="ESUHnA.tif"><path class="cls-2" d="M33.48,14.7c-3.51,1.04-6.58,1.94-8.76,2.58.24,3.12.6,5.56.56,8-.04,2.49-.56,4.96-.71,7.45-.23,3.71-1,7.19-2.23,10.76-1.17,3.4-1,7.33-1,11.03,0,.92,1.88,2.73,2.49,2.58,1.21-.31,2.57-1.54,3.07-2.72.51-1.21,0-2.83.04-4.27.11-3.6,1.21-6.84,3.67-10.07.25.79.36,1.12.45,1.45,1.1,4.27,2.1,8.57,3.32,12.81.74,2.57,3.21,3.5,4.78,1.76.76-.85,1.01-2.64.76-3.84-1.07-5.01-2.43-9.96-3.72-15.09,1.39-.18,2.3-.3,3.44-.45-.43-1.89-.81-3.58-1.2-5.32-4.25,1.7-5.9,1.93-6.96.41-.74-1.04-1.23-2.73-.94-3.9.29-1.16,1.71-2.04,2.64-3.04.2.22.41.44.61.66-.43.31-1.07.54-1.23.95-.51,1.29-1.43,2.84-1.09,3.95.55,1.8,2.37,2.09,4.07,1.2,1.01-.53,2-1.15,2.86-1.9,5.44-4.79,6.45-6.91-1.38-9.9-1.99-.76-4.26-1.66-3.52-5.09ZM24.48,9.57c.17.17.34.34.51.52-1.03.3-2.06.61-3.09.91,0,.17.02.34.03.5,3.78.32,7.57.64,11.35.96.04-.24.09-.48.13-.72-1.79-.47-3.59-.94-5.32-1.4.77-.11,1.58-.23,2.09-.3,1.63-4.04-1.73-2.97-3.13-3.11-.76-.08-1.71,1.71-2.57,2.65ZM22.9,12.19c2.1,5.8,4.66-.25,6.71,1.41.02-.28.04-.56.07-.84-2.11-.18-4.23-.35-6.77-.56Z"/><path class="cls-1" d="M33.48,14.7c-.74,3.43,1.53,4.33,3.52,5.09,7.84,2.99,6.82,5.11,1.38,9.9-.85.75-1.85,1.37-2.86,1.9-1.71.89-3.52.6-4.07-1.2-.34-1.11.58-2.66,1.09-3.95.16-.42.81-.64,1.23-.95-.2-.22-.41-.44-.61-.66-.92,1-2.34,1.88-2.64,3.04-.3,1.17.2,2.86.94,3.9,1.07,1.51,2.71,1.28,6.96-.41.39,1.74.77,3.43,1.2,5.32-1.14.15-2.06.27-3.44.45,1.29,5.12,2.64,10.07,3.72,15.09.26,1.2,0,3-.76,3.84-1.57,1.74-4.04.81-4.78-1.76-1.22-4.24-2.22-8.54-3.32-12.81-.09-.33-.2-.66-.45-1.45-2.46,3.22-3.56,6.47-3.67,10.07-.04,1.44.47,3.06-.04,4.27-.5,1.18-1.86,2.41-3.07,2.72-.61.16-2.49-1.65-2.49-2.58,0-3.7-.18-7.63,1-11.03,1.23-3.57,2-7.06,2.23-10.76.16-2.49.67-4.96.71-7.45.04-2.44-.32-4.88-.56-8,2.18-.64,5.25-1.55,8.76-2.58Z"/><path class="cls-1" d="M24.48,9.57c.86-.94,1.81-2.73,2.57-2.65,1.4.14,4.76-.93,3.13,3.11-.52.07-1.32.19-2.09.3,1.74.46,3.53.93,5.32,1.4-.04.24-.09.48-.13.72-3.78-.32-7.57-.64-11.35-.96,0-.17-.02-.34-.03-.5,1.03-.3,2.06-.61,3.09-.91-.17-.17-.34-.34-.51-.52Z"/><path class="cls-1" d="M22.9,12.19c2.55.21,4.66.39,6.77.56-.02.28-.04.56-.07.84-2.04-1.66-4.6,4.39-6.71-1.41Z"/></g></svg>