<?xml version="1.0" encoding="UTF-8"?><svg id="Layer_1" xmlns="http://www.w3.org/2000/svg" viewBox="0 0 64 64"><defs><style>.cls-1{fill:#000;stroke-width:0px;}</style></defs><g id="ejd3Ny.tif"><path class="cls-1" d="M22.01,45.34c-.82-.34-1.42-.57-2.02-.83-.82-.37-1.16-.69-.85-1.85.39-1.46.09-3.11.09-4.93-2.28,1.74-4.38,3.43-5.52,6.01-.71,1.61-1.63,2.21-2.82,1.76-1.27-.48-1.87-1.82-.98-3.31,1.19-2,2.77-3.78,4.17-5.65.31-.41.9-.94.81-1.26-.42-1.55-.06-2.88.6-4.29.32-.68.16-1.62.12-2.44-.1-1.78.61-3.14,2.15-3.96,1.6-.84,3.21-.74,4.6.5,1.75,1.57,3.49,3.16,5.16,4.81.6.59,1.04,1.46.13,2.15-.86.66-1.52.09-2.07-.62-.39-.51-.84-.98-1.48-1.73-.27,1.51-.47,2.7-.67,3.82,1.06,0,2.05.1,3-.02,3.13-.4,5.55-2.36,8.01-4.05,3.07-2.12,6.39-2.97,9.97-2.75,4.11.26,8.2.82,12.29,1.27.2.02.38.18.71.33-.32.5-.6.95-.93,1.46,3.02,3.21,2.3,7.41,2.82,11.3.08.57-.06,1.26-.35,1.74-.24.41-.82.71-1.31.82-.22.05-.69-.43-.83-.76-.66-1.52-1.81-2.38-3.43-2.4-1.62-.02-2.7.89-3.57,2.27-.39.61-1.31,1.18-2.03,1.25-3.17.28-6.36.44-9.55.52-2.31.06-4.62-.02-6.93-.18-.53-.04-1.24-.56-1.48-1.05-.9-1.85-2.37-2.9-4.1-2.71-1.97.22-3.25,1.57-3.55,3.72-.04.26-.08.52-.17,1.05ZM41.86,27.88v5.48c4.3-.46,8.65-.18,12.35-3.6-4.14-2.19-8.18-2.13-12.35-1.87ZM29.67,34.88c3.68-.45,7.35-.9,11.04-1.35v-5.48c-4.56.92-8.08,3.27-11.04,6.83ZM20.21,33.31c.06.65.1,1.16.15,1.77-.54-.09-.95-.16-1.15-.2-.13.67-.23,1.24-.35,1.86,1.77-.33.28,1.55,1.29,2.29.23-.45.45-.89.68-1.35.41.44.61.65.86.92.78-1.33,1.51-2.56,2.19-3.7-1.41-.61-2.48-1.07-3.67-1.58Z"/><path class="cls-1" d="M19.38,16.55c1.9-.02,3.49,1.5,3.54,3.4.05,1.94-1.61,3.62-3.54,3.59-1.9-.03-3.42-1.59-3.44-3.51-.02-1.9,1.53-3.45,3.45-3.47Z"/><path class="cls-1" d="M13.63,32.76c.4,3.32.24,3.55-2.63,4.79-.94.41-1.8,1.02-2.64,1.63-1.19.86-2.52.9-3.22-.06-.82-1.14-.53-2.17.49-3.04,2.28-1.95,4.92-3,8-3.32Z"/><path class="cls-1" d="M28.89,44.55c.01,1.61-1.31,2.91-2.94,2.9-1.58-.02-2.86-1.27-2.86-2.8,0-1.56,1.39-2.94,2.96-2.92,1.53.02,2.83,1.31,2.84,2.82Z"/><path class="cls-1" d="M56.03,44.57c0,1.57-1.31,2.84-2.85,2.79-1.49-.05-2.71-1.27-2.73-2.76-.03-1.57,1.22-2.86,2.78-2.88,1.54-.01,2.82,1.28,2.81,2.84Z"/><path class="cls-1" d="M15.08,25.8c-.45,2.69-.45,2.71-3.05,2.66-.87-.02-1.79,0-2.58-.28-.46-.16-.74-.87-1.1-1.34.46-.35.91-.97,1.39-1,1.73-.12,3.47-.05,5.34-.05Z"/><path class="cls-1" d="M50.69,20.1c-.16.31-.27.56-.42.78-.97,1.46-1.91,2.94-2.97,4.33-.27.35-.97.36-1.48.53.02-.48-.14-1.07.08-1.42.94-1.54,1.96-3.04,3.03-4.49.22-.3.8-.42,1.23-.45.15-.01.35.46.53.73Z"/><path class="cls-1" d="M42.64,22.02c0,.82.08,1.65-.04,2.46-.04.32-.52.79-.8.79-.3,0-.83-.47-.84-.75-.07-1.8-.07-3.61.02-5.42.01-.27.59-.74.87-.72.28.02.72.52.76.85.1.92.04,1.86.04,2.79Z"/><path class="cls-1" d="M38.08,25.22c-.15.18-.33.56-.56.6-.32.05-.84-.05-1-.27-1.18-1.64-2.33-3.31-3.4-5.02-.15-.23.04-.84.27-1.09.15-.16.85-.11.99.08,1.24,1.73,2.42,3.5,3.61,5.27.06.08.05.21.1.44Z"/></g></svg>