<?xml version="1.0" encoding="UTF-8"?><svg id="Layer_1" xmlns="http://www.w3.org/2000/svg" viewBox="0 0 64 64"><defs><style>.cls-1{fill:#000;}.cls-1,.cls-2{stroke-width:0px;}.cls-2{fill:#fff;}</style></defs><g id="_61M5oW.tif"><path class="cls-2" d="M28.03,52.88c1.73.12,2.43-.46,2.46-2.21.04-2.04.01-4.08.01-6.12,0-1.53,0-3.06,0-4.64.67-.04,1.1-.12,1.52-.08,1.5.13,1.94-.55,1.59-1.93-.3-1.2-.53-2.41-.84-3.6-.23-.9-.02-1.53.82-2.02,1.2-.71,2.31-1.58,3.52-2.27,1.21-.69,1.75-1.62,1.65-3.03-.09-1.28-.02-2.58-.02-3.87.2,0,.39-.02.59-.03.05.54.14,1.08.14,1.61.02,8.49.02,16.97.03,25.46,0,1.99.71,2.84,2.42,2.85,1.69.02,2.41-.81,2.42-2.85,0-4.46,0-8.91.02-13.37,0-.55.18-1.1.28-1.65l.56.02c.08.58.24,1.16.24,1.74.02,3.87.01,7.73.01,11.6,0,.81-.02,1.61.03,2.42.09,1.44.94,2.08,2.34,2.09,1.39.01,2.25-.61,2.39-2.05.14-1.55.31-3.09-1.06-4.32-.34-.3-.48-.97-.5-1.48-.05-1.93-.09-3.87.03-5.79.05-.75.53-1.47.8-2.21.26-.72.7-1.45.72-2.19.08-3.54.02-7.09.04-10.63,0-.5.16-1.01.24-1.51.13,0,.26.02.4.02.07.56.2,1.12.21,1.68.03,3.17.01,6.34.04,9.51,0,.58-.02,1.25.25,1.72.61,1.06,1.17,1.95-.34,2.74-.2.1-.2.69-.2,1.05-.02,1.18,0,2.36,0,3.54q0,3.11,3.09,3.02c.11,0,.21,0,.32,0,.93.03,1.38-.39,1.36-1.35-.03-1.4.09-2.8-.04-4.19-.1-1.03-.49-2.03-.75-3.05-.15.03-.3.07-.45.1.29-.92.82-1.83.83-2.75.04-4.02,0-8.05-.15-12.08-.08-2.02-1.55-3.35-3.64-3.69-2.89-.46-3.04-.38-4.23,2.27-.19.43-.44.83-.8,1.52-.3-1.41-.54-2.53-.81-3.77h-1.43c-.19,1.27-.35,2.41-.59,4-.52-1.02-.9-1.61-1.13-2.25-.56-1.51-1.63-1.97-3.16-1.86-3.05.22-4.65,1.77-4.53,4.87.1,2.39-.14,4.38-3.04,5.11-.35-1.55-.71-3.15-1.08-4.75-.62-2.65-.87-2.99-3.16-2.99-1.63,0-3.26.28-4.89.47-.12.01-.28.2-.32.34-.43,1.38-.84,2.76-1.26,4.15.12.05.23.1.35.15.64-.5,1.28-1,1.92-1.5-.7,1.94-1.62,3.51-4.04,3.26-1.16-.12-2.36.04-3.54.15-.94.09-1.95.36-1.9,1.53.06,1.29,1.15,1.41,2.15,1.38,2.04-.05,4.1,0,6.11-.33.98-.16,1.97-.91,2.74-1.63.79-.74,1.31-1.78,2.12-2.92-.47,4.9-1.34,5.79-5.67,6.1-.11,0-.21.02-.32.02-.88-.04-1.36.3-1.5,1.25-.2,1.32-.57,2.62-.84,3.93-.44,2.15-.43,2.21,1.74,2.22,1.41,0,1.87.55,1.83,1.94-.08,2.95,0,5.91-.03,8.86-.01,1.31.49,2.18,1.86,2.38,1.66.24,2.66-.6,2.67-2.33.03-3.17-.01-6.34.04-9.51,0-.4.44-.8.68-1.19.22.4.6.8.62,1.22.09,1.66.08,3.33.09,4.99.01,2.24,0,4.48,0,6.72ZM44.96,17.84c2.26-.01,4.17-1.58,4.16-3.42-.01-1.84-1.94-3.43-4.17-3.44-2.36-.02-4.25,1.56-4.2,3.52.05,1.89,1.9,3.36,4.2,3.34ZM25.95,20.02c2.09.02,3.93-1.45,3.99-3.19.06-1.81-1.63-3.3-3.79-3.35-2.22-.05-4.07,1.42-4.08,3.24,0,1.75,1.8,3.29,3.88,3.31ZM16.17,20.43c-1.84,0-3.69-.05-5.54.05-.3.02-.83.68-.79.98.05.42.51,1.1.84,1.13,1.32.13,2.66.1,3.99.03,1.22-.07,1.85-.7,1.5-2.19ZM16.81,25.84c.45-1.52-.06-2.15-1.5-2.1-1.26.04-2.53,0-3.87,0v2.09h5.37ZM31.99,15.73c.74-.1,1.22-.14,1.69-.23,1.05-.19,2.12-.36,3.14-.65.31-.09.52-.53.77-.82-.36-.14-.75-.43-1.09-.38-1.48.23-2.95.53-4.4.88-.31.08-.53.5-.79.76.28.18.57.36.67.43ZM34.2,11.6c-1.34-.61-4.22.92-4.18,1.92,0,.19.79.6.94.5,1.05-.7,2.04-1.5,3.24-2.42ZM9.73,23.8c-.15-.09-.3-.18-.45-.26-.32.48-.87.96-.89,1.45-.01.36.67.74,1.34,1.41v-2.59Z"/><path class="cls-1" d="M28.03,52.88c0-2.24,0-4.48,0-6.72,0-1.66,0-3.33-.09-4.99-.02-.42-.41-.81-.62-1.22-.24.4-.67.79-.68,1.19-.06,3.17-.01,6.34-.04,9.51-.02,1.73-1.02,2.57-2.67,2.33-1.37-.2-1.87-1.06-1.86-2.38.02-2.95-.05-5.91.03-8.86.04-1.38-.42-1.94-1.83-1.94-2.17,0-2.18-.07-1.74-2.22.27-1.31.64-2.61.84-3.93.14-.95.62-1.29,1.5-1.25.11,0,.21,0,.32-.02,4.33-.31,5.2-1.2,5.67-6.1-.81,1.15-1.33,2.18-2.12,2.92-.76.72-1.75,1.47-2.74,1.63-2,.32-4.07.27-6.11.33-1,.03-2.09-.1-2.15-1.38-.05-1.18.96-1.45,1.9-1.53,1.17-.11,2.37-.26,3.54-.15,2.43.25,3.34-1.32,4.04-3.26-.64.5-1.28,1-1.92,1.5-.12-.05-.23-.1-.35-.15.42-1.38.83-2.77,1.26-4.15.04-.14.2-.33.32-.34,1.63-.18,3.26-.47,4.89-.47,2.28,0,2.54.34,3.16,2.99.37,1.6.73,3.21,1.08,4.75,2.9-.73,3.14-2.73,3.04-5.11-.12-3.1,1.48-4.65,4.53-4.87,1.53-.11,2.6.35,3.16,1.86.24.64.61,1.23,1.13,2.25.23-1.58.4-2.73.59-4h1.43c.27,1.25.51,2.37.81,3.77.36-.68.6-1.09.8-1.52,1.2-2.65,1.34-2.74,4.23-2.27,2.09.34,3.56,1.67,3.64,3.69.15,4.02.19,8.05.15,12.08,0,.92-.54,1.83-.83,2.75.15-.03.3-.07.45-.1.26,1.01.65,2.02.75,3.05.13,1.38,0,2.79.04,4.19.02.96-.43,1.38-1.36,1.35-.11,0-.21,0-.32,0q-3.09.09-3.09-3.02c0-1.18-.01-2.36,0-3.54,0-.36,0-.95.2-1.05,1.51-.79.95-1.68.34-2.74-.27-.47-.25-1.14-.25-1.72-.03-3.17-.01-6.34-.04-9.51,0-.56-.14-1.12-.21-1.68-.13,0-.26-.02-.4-.02-.09.5-.24,1.01-.24,1.51-.02,3.54.03,7.09-.04,10.63-.02.73-.46,1.46-.72,2.19-.27.74-.75,1.46-.8,2.21-.12,1.93-.08,3.86-.03,5.79.01.51.16,1.17.5,1.48,1.37,1.23,1.2,2.77,1.06,4.32-.13,1.44-.99,2.06-2.39,2.05-1.39-.01-2.25-.65-2.34-2.09-.05-.8-.03-1.61-.03-2.42,0-3.87,0-7.73-.01-11.6,0-.58-.16-1.16-.24-1.74l-.56-.02c-.1.55-.27,1.1-.28,1.65-.02,4.46,0,8.91-.02,13.37,0,2.04-.72,2.86-2.42,2.85-1.71-.02-2.42-.86-2.42-2.85,0-8.49,0-16.97-.03-25.46,0-.54-.09-1.08-.14-1.61-.2,0-.39.02-.59.03,0,1.29-.07,2.58.02,3.87.09,1.4-.45,2.33-1.65,3.03-1.21.69-2.32,1.56-3.52,2.27-.83.5-1.05,1.12-.82,2.02.31,1.19.54,2.41.84,3.6.35,1.38-.09,2.06-1.59,1.93-.42-.04-.84.04-1.52.08,0,1.57,0,3.11,0,4.64,0,2.04.03,4.08-.01,6.12-.03,1.75-.73,2.33-2.46,2.21Z"/><path class="cls-1" d="M44.96,17.84c-2.31.01-4.16-1.46-4.2-3.34-.05-1.96,1.83-3.54,4.2-3.52,2.23.01,4.15,1.61,4.17,3.44.01,1.84-1.9,3.41-4.16,3.42Z"/><path class="cls-1" d="M25.95,20.02c-2.08-.02-3.88-1.55-3.88-3.31,0-1.82,1.85-3.29,4.08-3.24,2.16.05,3.85,1.55,3.79,3.35-.06,1.74-1.89,3.21-3.99,3.19Z"/><path class="cls-1" d="M16.17,20.43c.35,1.49-.28,2.12-1.5,2.19-1.33.07-2.67.1-3.99-.03-.34-.03-.8-.71-.84-1.13-.04-.31.49-.97.79-.98,1.85-.09,3.7-.05,5.54-.05Z"/><path class="cls-1" d="M16.81,25.84h-5.37v-2.09c1.34,0,2.61.03,3.87,0,1.44-.05,1.95.58,1.5,2.1Z"/><path class="cls-1" d="M31.99,15.73c-.11-.07-.39-.25-.67-.43.26-.26.49-.68.79-.76,1.45-.36,2.92-.65,4.4-.88.33-.05.72.25,1.09.38-.25.28-.46.73-.77.82-1.03.29-2.09.45-3.14.65-.47.09-.95.13-1.69.23Z"/><path class="cls-1" d="M34.2,11.6c-1.2.92-2.18,1.72-3.24,2.42-.15.1-.93-.31-.94-.5-.04-1.01,2.84-2.54,4.18-1.92Z"/><path class="cls-1" d="M9.73,23.8v2.59c-.67-.66-1.35-1.05-1.34-1.41.02-.49.57-.97.89-1.45.15.09.3.18.45.26Z"/></g></svg>