<?xml version="1.0" encoding="UTF-8"?><svg id="Layer_1" xmlns="http://www.w3.org/2000/svg" viewBox="0 0 64 64"><defs><style>.cls-1{fill:#000;}.cls-1,.cls-2{stroke-width:0px;}.cls-2{fill:#fff;}</style></defs><g id="_5HOACB.tif"><path class="cls-2" d="M19.45,42.06c0,1.99-.02,3.99.01,5.98.01.78,1.08,2.05,1.82,2.24.83.21,1.31-.32,1.87-.82.62-.55.73-1.16.72-1.92-.04-2.31-.1-4.62,0-6.93.11-2.33.46-4.65.57-6.98.04-.91.4-1.01,1.13-.99,1.05.04,2.1.08,3.15,0,1.78-.15,3.27.74,4.81,1.32.99.38,1.79,1.23,2.7,1.84.98.65,2.02,1.23,2.97,1.92.22.16.39.79.26.99-1.33,2.12-.95,4.82-2.37,6.9-.1.15.1.77.23.79,2.2.34,3.93,1.67,5.86,2.59.75.36,1.71.59,2.49.44.38-.07.55-1.15.85-1.76.13-.26.35-.48.5-.74,2.05-3.33,4.14-6.64,5.79-10.19.67-1.43.7-1.67-.62-2.17-2.9-1.1-5.61-2.68-8.68-3.38-1.48-.34-1.45-.48-2.04,1-.32.81-.83.94-1.72.46-.77-.42-1.54-.84-2.31-1.26-2.76-1.49-5.41-3.13-8.77-3.22-2.17-.06-4.48-1.66-5.37-3.46-.39-.8-1.02-1.24-1.44-1.91-.14-.22-.26-.44-.4-.67.28-.04.63-.21.84-.11,1.8.82,3.76,1.35,5.04,3.08.32.43,1.05.54,1.48.93.65.6,1.05.31,1.54-.19.62-.62.64-1.3.14-1.93-1.69-2.08-3.87-3.53-6.35-4.4-.89-.31-1.94-.15-2.87-.68-1.05-.59-.56-1.73-1.15-2.54-1.14-1.56-3.14-3.08-4.42-2.45-1.15.57-2.27,1.56-2.94,2.65-.43.7-.04,1.92.03,2.91.01.17.26.31.34.48.76,1.62.76,1.63-.6,3-2.15,2.16-4.32,4.28-6.44,6.47-.54.56-.84,1.36-1.37,1.93-.57.61-.48,1.01.06,1.55.61.61,1.27.64,1.93.24.44-.27.75-.72,1.12-1.09,1.48-1.48,2.99-2.94,4.44-4.46.67-.71,1.13-.64,1.77.04,1.22,1.3,2.36,2.77,3.83,3.7.79.5,1.67.99,2.05,1.7.37.7.43,1.76-.42,2.56-.26.25-.06,1-.06,1.52,0,1.68,0,3.36,0,5.04ZM58,40.67c.76-.32,1.49-.41,1.58-.7.15-.5.07-1.23-.22-1.66-1.07-1.64-1.89-3.28-1.54-5.35.12-.73-1.08-2.21-1.82-2.15-2.02.15-2.88-1.19-3.82-2.54-.55-.8-1.14-.9-1.9-.32-.67.51-.77.93-.17,1.76,2.52,3.42,4.91,6.95,7.35,10.43.19.27.47.48.53.54ZM38.48,23.66c-.22.63-.47,1.02-.46,1.41.02.69.42,1.43.26,2.05-.25,1.01-1.22.35-1.87.47-.6.12-.67.29-.24.7.23.22.43.47.67.66.42.33,0,1.54,1.01,1.12.43-.18.79-.87.91-1.39.18-.79.09-1.64.19-2.45.1-.79.41-.36.74-.1.98.79.99.77,1.77-.43.12-.18.3-.33.45-.49.06.19.13.37.18.56.36,1.47.41,1.48,1.57.59.25-.19.59-.27.88-.4-.03.28.04.72-.11.83-.78.56-.12.85.2,1.12.34.29.91.37,1.16.7.58.76.56.82.82.43.33-.48.63-1,.88-1.52.06-.12-.12-.51-.21-.52-.52-.05-1.08.07-1.56-.07-.23-.07-.52-.8-.43-.89.66-.68,1.05-1.56.26-2.12-.73-.51-1.15.58-1.7.98-.08.06-.15.14-.22.22-.61.7-.86.73-.95-.34-.04-.53-.54-1.02-.83-1.53-.34.45-.68.89-1,1.34-.05.07,0,.21,0,.31-.04.6-.09,1.12-.77.35-.45-.51-.95-.96-1.6-1.61Z"/><path class="cls-1" d="M19.45,42.06c0-1.68,0-3.36,0-5.04,0-.52-.2-1.27.06-1.52.86-.8.79-1.86.42-2.56-.37-.7-1.26-1.2-2.05-1.7-1.47-.93-2.61-2.4-3.83-3.7-.64-.68-1.1-.75-1.77-.04-1.44,1.52-2.96,2.98-4.44,4.46-.37.37-.69.83-1.12,1.09-.66.4-1.31.37-1.93-.24-.55-.54-.63-.94-.06-1.55.53-.57.83-1.37,1.37-1.93,2.12-2.19,4.29-4.31,6.44-6.47,1.36-1.37,1.36-1.38.6-3-.08-.18-.33-.32-.34-.48-.06-.99-.46-2.21-.03-2.91.67-1.09,1.78-2.08,2.94-2.65,1.28-.63,3.28.89,4.42,2.45.59.81.1,1.95,1.15,2.54.93.53,1.98.37,2.87.68,2.48.87,4.66,2.33,6.35,4.4.51.62.48,1.3-.14,1.93-.49.49-.89.79-1.54.19-.42-.39-1.15-.49-1.48-.93-1.28-1.73-3.24-2.25-5.04-3.08-.22-.1-.56.07-.84.11.13.22.26.45.4.67.42.67,1.05,1.12,1.44,1.91.89,1.81,3.2,3.4,5.37,3.46,3.36.1,6,1.74,8.77,3.22.77.42,1.54.84,2.31,1.26.89.48,1.4.35,1.72-.46.59-1.49.56-1.34,2.04-1,3.07.7,5.78,2.28,8.68,3.38,1.33.51,1.29.74.62,2.17-1.65,3.56-3.74,6.86-5.79,10.19-.16.25-.37.47-.5.74-.3.61-.47,1.69-.85,1.76-.78.14-1.74-.09-2.49-.44-1.93-.92-3.67-2.25-5.86-2.59-.12-.02-.33-.64-.23-.79,1.42-2.08,1.04-4.78,2.37-6.9.13-.21-.04-.83-.26-.99-.95-.69-1.99-1.27-2.97-1.92-.91-.6-1.71-1.46-2.7-1.84-1.54-.59-3.03-1.47-4.81-1.32-1.04.09-2.1.05-3.15,0-.73-.03-1.09.08-1.13.99-.11,2.33-.47,4.65-.57,6.98-.1,2.3-.05,4.62,0,6.93.01.76-.1,1.37-.72,1.92-.56.5-1.04,1.03-1.87.82-.74-.19-1.81-1.46-1.82-2.24-.03-1.99-.01-3.99-.01-5.98Z"/><path class="cls-1" d="M58,40.67c-.07-.06-.34-.27-.53-.54-2.45-3.48-4.83-7.01-7.35-10.43-.61-.82-.51-1.25.17-1.76.76-.58,1.34-.47,1.9.32.94,1.35,1.8,2.69,3.82,2.54.74-.06,1.94,1.43,1.82,2.15-.35,2.06.47,3.71,1.54,5.35.28.43.37,1.16.22,1.66-.09.29-.82.39-1.58.7Z"/><path class="cls-1" d="M38.48,23.66c.65.65,1.15,1.1,1.6,1.61.68.77.74.25.77-.35,0-.1-.04-.24,0-.31.32-.46.67-.9,1-1.34.29.51.79,1,.83,1.53.09,1.06.34,1.04.95.34.07-.08.14-.16.22-.22.55-.4.97-1.5,1.7-.98.79.56.41,1.44-.26,2.12-.09.09.21.82.43.89.48.14,1.04.02,1.56.07.09,0,.27.4.21.52-.25.53-.55,1.04-.88,1.52-.27.39-.25.33-.82-.43-.25-.33-.82-.41-1.16-.7-.32-.27-.99-.56-.2-1.12.16-.11.08-.54.11-.83-.3.13-.63.21-.88.4-1.17.9-1.21.89-1.57-.59-.05-.19-.12-.37-.18-.56-.15.16-.33.3-.45.49-.78,1.2-.79,1.22-1.77.43-.33-.26-.64-.69-.74.1-.1.81,0,1.66-.19,2.45-.12.52-.48,1.21-.91,1.39-1.01.41-.59-.79-1.01-1.12-.25-.19-.44-.44-.67-.66-.44-.41-.37-.58.24-.7.64-.12,1.61.54,1.87-.47.15-.62-.24-1.36-.26-2.05-.01-.38.24-.77.46-1.41Z"/></g></svg>