<?xml version="1.0" encoding="UTF-8"?><svg id="Layer_1" xmlns="http://www.w3.org/2000/svg" viewBox="0 0 64 64"><defs><style>.cls-1{fill:#000;}.cls-1,.cls-2{stroke-width:0px;}.cls-2{fill:#fff;}</style></defs><g id="cUNVew.tif"><path class="cls-2" d="M8.15,33.88c-2.18,1.74-2.97,4.01-2.92,6.69.03,1.42.53,2.27,2.03,2.16,1.05-.07,1.26.45,1.32,1.34.12,1.71.36,3.41.5,5.12.11,1.37.79,1.99,2.16,1.95.96-.03,1.92-.03,2.88,0,1.37.04,2.03-.6,2.15-1.96.18-2.1.43-4.18.66-6.34.6-.04,1.16.06,1.58-.14.58-.28,1.33-.69,1.5-1.22.83-2.46-.7-6.17-2.97-7.51-2.96,2.03-5.93,1.93-8.89-.09ZM55.86,33.9c-3.49,2.05-5.02,2.04-9.1.05-1.43,1.07-2.28,2.51-2.67,4.25-.76,3.41-.36,4.08,2.99,4.75.13,1.16.29,2.36.4,3.55.5,5.25.1,4.6,5.5,4.63,1.14,0,1.79-.54,1.9-1.71.17-1.76.41-3.52.53-5.28.06-.98.33-1.51,1.44-1.41.97.09,1.77-.32,1.87-1.36.28-2.92-.34-5.53-2.85-7.47ZM36.26,42.82c.64-.03,1.19.07,1.62-.12.54-.24,1.24-.64,1.4-1.12.83-2.54-.51-5.99-2.86-7.65-2.97,2.12-5.99,1.96-8.95-.03-1.68,1.39-2.65,3.04-2.81,5.13-.25,3.28-.18,3.37,3.11,3.91.12,1.2.19,2.46.37,3.7.64,4.56-.43,4.6,5.18,4.51,1.72-.03,2.18-.5,2.34-2.26.18-2,.4-4,.62-6.06ZM32.01,19.33c1.15.67,1.91,2.69,3.44,1.27,1.7-1.58-.43-2.47-1.09-3.62.62-1.13,2.69-1.99,1.22-3.52-1.59-1.67-2.44.59-3.59,1.15-1.15-.6-1.94-2.74-3.51-1.22-1.63,1.58.6,2.45,1.15,3.62-.7,1.13-2.7,2.02-1.15,3.54,1.58,1.55,2.36-.61,3.54-1.22ZM32.06,24.61c-2.12-.03-3.91,1.68-3.95,3.78-.04,2.06,1.74,3.89,3.82,3.93,2.07.04,3.91-1.73,3.95-3.8.04-2.08-1.72-3.87-3.83-3.91ZM55.18,28.5c.02-2.14-1.66-3.86-3.81-3.88-2.16-.02-3.86,1.64-3.88,3.8-.02,2.13,1.69,3.88,3.8,3.91,2.1.03,3.87-1.71,3.89-3.83ZM12.71,24.61c-2.16-.02-3.85,1.65-3.86,3.81,0,2.15,1.66,3.88,3.78,3.9,2.11.02,3.86-1.7,3.88-3.83.02-2.16-1.65-3.86-3.8-3.89ZM12.02,16.51c-.2-.19-.34-.31-.47-.45-.69-.74-1.5-.92-2.28-.24-.78.68-.66,1.51-.11,2.32.46.67.87,1.37,1.36,2.01.92,1.21,1.95,1.24,2.83.02,1.09-1.52,2.1-3.1,3.12-4.67.54-.82.57-1.65-.3-2.27-.95-.67-1.72-.28-2.32.58-.6.86-1.18,1.75-1.82,2.7ZM50.47,16.5c-.17-.13-.3-.2-.39-.31-.68-.83-1.49-1.11-2.35-.38-.86.73-.64,1.59-.05,2.42.44.62.82,1.27,1.27,1.88.91,1.22,1.96,1.29,2.82.09,1.12-1.55,2.15-3.17,3.19-4.78.54-.84.48-1.66-.39-2.24-.89-.59-1.65-.26-2.22.54-.64.9-1.24,1.83-1.88,2.77Z"/><path class="cls-1" d="M8.15,33.88c2.97,2.02,5.94,2.12,8.89.09,2.27,1.34,3.8,5.05,2.97,7.51-.18.52-.93.94-1.5,1.22-.41.2-.97.1-1.58.14-.23,2.16-.48,4.25-.66,6.34-.12,1.36-.78,2-2.15,1.96-.96-.03-1.92-.03-2.88,0-1.36.04-2.05-.58-2.16-1.95-.13-1.71-.38-3.41-.5-5.12-.06-.89-.27-1.42-1.32-1.34-1.5.11-2-.74-2.03-2.16-.05-2.68.74-4.95,2.92-6.69Z"/><path class="cls-1" d="M55.86,33.9c2.51,1.94,3.14,4.55,2.85,7.47-.1,1.04-.9,1.45-1.87,1.36-1.1-.1-1.37.43-1.44,1.41-.12,1.76-.36,3.52-.53,5.28-.11,1.17-.76,1.72-1.9,1.71-5.4-.03-5,.62-5.5-4.63-.12-1.2-.27-2.39-.4-3.55-3.35-.67-3.76-1.34-2.99-4.75.39-1.75,1.24-3.18,2.67-4.25,4.08,1.99,5.62,2,9.1-.05Z"/><path class="cls-1" d="M36.26,42.82c-.21,2.06-.44,4.06-.62,6.06-.16,1.76-.62,2.23-2.34,2.26-5.61.08-4.54.05-5.18-4.51-.17-1.24-.25-2.49-.37-3.7-3.29-.54-3.36-.63-3.11-3.91.16-2.09,1.12-3.73,2.81-5.13,2.96,1.99,5.98,2.15,8.95.03,2.35,1.66,3.69,5.11,2.86,7.65-.16.48-.86.88-1.4,1.12-.42.19-.98.09-1.62.12Z"/><path class="cls-1" d="M32.01,19.33c-1.18.61-1.96,2.77-3.54,1.22-1.55-1.52.45-2.41,1.15-3.54-.55-1.16-2.77-2.04-1.15-3.62,1.57-1.53,2.37.62,3.51,1.22,1.16-.56,2-2.82,3.59-1.15,1.47,1.54-.6,2.39-1.22,3.52.66,1.15,2.8,2.04,1.09,3.62-1.54,1.42-2.29-.61-3.44-1.27Z"/><path class="cls-1" d="M32.06,24.61c2.11.03,3.87,1.83,3.83,3.91-.04,2.07-1.88,3.84-3.95,3.8-2.08-.04-3.86-1.87-3.82-3.93.04-2.1,1.82-3.81,3.95-3.78Z"/><path class="cls-1" d="M55.18,28.5c-.02,2.11-1.79,3.85-3.89,3.83-2.11-.03-3.82-1.78-3.8-3.91.02-2.16,1.72-3.82,3.88-3.8,2.15.02,3.83,1.74,3.81,3.88Z"/><path class="cls-1" d="M12.71,24.61c2.15.02,3.82,1.73,3.8,3.89-.02,2.12-1.77,3.85-3.88,3.83-2.12-.02-3.79-1.75-3.78-3.9,0-2.16,1.7-3.83,3.86-3.81Z"/><path class="cls-1" d="M12.02,16.51c.64-.96,1.22-1.84,1.82-2.7.6-.86,1.37-1.25,2.32-.58.87.61.84,1.44.3,2.27-1.02,1.57-2.03,3.14-3.12,4.67-.87,1.22-1.91,1.2-2.83-.02-.49-.64-.9-1.34-1.36-2.01-.55-.8-.67-1.64.11-2.32.78-.67,1.59-.5,2.28.24.13.14.27.26.47.45Z"/><path class="cls-1" d="M50.47,16.5c.64-.94,1.24-1.87,1.88-2.77.57-.8,1.33-1.13,2.22-.54.88.58.93,1.4.39,2.24-1.04,1.61-2.07,3.22-3.19,4.78-.86,1.2-1.91,1.14-2.82-.09-.45-.61-.83-1.26-1.27-1.88-.59-.83-.81-1.69.05-2.42.86-.73,1.68-.45,2.35.38.09.11.22.18.39.31Z"/></g></svg>