<?xml version="1.0" encoding="UTF-8"?><svg id="Layer_1" xmlns="http://www.w3.org/2000/svg" viewBox="0 0 64 64"><defs><style>.cls-1{fill:#000;}.cls-1,.cls-2{stroke-width:0px;}.cls-2{fill:#fff;}</style></defs><g id="KZXdRh.tif"><path class="cls-2" d="M36.07,15.18c-.32-.45-.56-.8-.81-1.14-3.71-4.85-7.19-5.18-12.34-4.19-4.31.83-6.98,4.78-7.66,9.68-.12.85-1,1.84-1.8,2.3-4.64,2.67-5.69,8.46-1.9,11.95,2.13-3.77,4.25-7.5,6.33-11.25,1.08-1.93,2.6-3.11,4.85-2.47,2.21.63,3.02,2.37,2.97,4.59-.04,2.12,0,4.25,0,6.33,4.05,1.05,9.98-2.05,10.06,5.29,2.91,1.1,3.41-1.39,4.55-2.8,2.17-2.72,4.11-2.76,6.22,0,.72.94,1.4,1.91,2.07,2.83,3.74-1.15,5.88-3.62,6.14-6.95.26-3.29-1.65-6.29-4.88-7.81-.64-.3-1.41-.73-1.71-1.31-2.97-5.77-5.72-6.99-12.08-5.04ZM20.32,43.45c0,3.32-.07,6.16.05,8.99.03.7.64,1.39.98,2.08.65-.43,1.57-.7,1.91-1.3,3.1-5.46,6.12-10.97,9.12-16.49,1.13-2.09.71-2.82-1.62-2.86-2.47-.05-4.94-.01-7.66-.01,0-3.11.07-5.94-.05-8.76-.04-.83-.63-1.63-.96-2.44-.69.51-1.65.87-2.04,1.55-3.15,5.43-6.21,10.92-9.25,16.42-1.12,2.02-.65,2.76,1.74,2.82,2.47.06,4.95.01,7.8.01ZM35.25,40.72c-3.02,2.66-3.88,5.2-2.34,6.94,1.19,1.35,3.37,1.39,4.59.08,1.55-1.66.73-4.23-2.25-7.02ZM51.74,40.57c-3.17,3.01-3.98,5.38-2.41,7.06,1.3,1.39,2.84,1.52,4.33.29,1.9-1.58,1.37-3.64-1.91-7.35ZM43.42,46.81c-2.98,2.62-3.84,5.21-2.3,6.9,1.09,1.19,3.55,1.19,4.63,0,1.55-1.71.66-4.34-2.33-6.9ZM43.48,34.29c-3.01,2.47-3.92,5.12-2.37,6.88,1.19,1.35,3.34,1.39,4.57.07,1.62-1.73.84-4.2-2.2-6.95Z"/><path class="cls-1" d="M36.07,15.18c6.35-1.95,9.11-.73,12.08,5.04.3.58,1.07,1.01,1.71,1.31,3.22,1.52,5.14,4.52,4.88,7.81-.26,3.33-2.41,5.8-6.14,6.95-.67-.91-1.34-1.89-2.07-2.83-2.1-2.75-4.05-2.71-6.22,0-1.13,1.42-1.64,3.9-4.55,2.8-.08-7.34-6.01-4.24-10.06-5.29,0-2.08-.03-4.2,0-6.33.05-2.23-.76-3.97-2.97-4.59-2.25-.64-3.77.54-4.85,2.47-2.09,3.75-4.21,7.48-6.33,11.25-3.79-3.49-2.74-9.28,1.9-11.95.8-.46,1.68-1.45,1.8-2.3.68-4.9,3.35-8.85,7.66-9.68,5.15-.99,8.62-.66,12.34,4.19.26.34.5.69.81,1.14Z"/><path class="cls-1" d="M20.32,43.45c-2.84,0-5.32.05-7.8-.01-2.38-.06-2.85-.8-1.74-2.82,3.03-5.5,6.1-10.98,9.25-16.42.39-.68,1.35-1.04,2.04-1.55.34.81.93,1.61.96,2.44.12,2.82.05,5.64.05,8.76,2.72,0,5.19-.04,7.66.01,2.33.05,2.76.78,1.62,2.86-3,5.52-6.02,11.03-9.12,16.49-.34.6-1.26.88-1.91,1.3-.34-.69-.95-1.37-.98-2.08-.11-2.83-.05-5.66-.05-8.99Z"/><path class="cls-1" d="M35.25,40.72c2.98,2.79,3.8,5.36,2.25,7.02-1.22,1.31-3.4,1.27-4.59-.08-1.54-1.74-.68-4.28,2.34-6.94Z"/><path class="cls-1" d="M51.74,40.57c3.28,3.71,3.81,5.77,1.91,7.35-1.48,1.23-3.02,1.1-4.33-.29-1.57-1.67-.76-4.04,2.41-7.06Z"/><path class="cls-1" d="M43.42,46.81c3,2.56,3.88,5.19,2.33,6.9-1.08,1.19-3.54,1.19-4.63,0-1.55-1.69-.68-4.27,2.3-6.9Z"/><path class="cls-1" d="M43.48,34.29c3.04,2.75,3.82,5.22,2.2,6.95-1.23,1.32-3.38,1.28-4.57-.07-1.55-1.76-.64-4.41,2.37-6.88Z"/></g></svg>