<?xml version="1.0" encoding="UTF-8"?><svg id="Layer_1" xmlns="http://www.w3.org/2000/svg" viewBox="0 0 64 64"><defs><style>.cls-1{fill:#000;}.cls-1,.cls-2{stroke-width:0px;}.cls-2{fill:#fff;}</style></defs><g id="JpoVHc.tif"><path class="cls-2" d="M32.47,15.46s.05,0,.08-.01c-.03,0-.07,0-.1-.01.03-.02.06-.03.1-.05-.02.03-.05.05-.07.07Z"/><path class="cls-1" d="M33.99,46.16c.4-2.71.87-6,1.36-9.28.87-5.82,1.76-11.63,2.63-17.44.31-2.05.41-2.22,2.47-1.93,4.84.68,9.67,1.45,14.5,2.15,1.21.17,1.57.78,1.39,1.95-1.14,7.46-2.26,14.91-3.36,22.38-.27,1.86-.44,3.73-.69,5.6-.2,1.49-.6,1.73-2.06,1.51-4.79-.73-9.59-1.43-14.38-2.16-1.84-.28-1.87-.32-1.86-2.78ZM42,23.19c-.87-.12-1.38.25-1.52,1.12-.06.4-.11.8-.17,1.2-.27,1.61.03,2.01,1.62,2.24,2.8.4,5.6.8,8.39,1.26,1.22.2,1.79-.27,1.92-1.43.06-.49.12-.98.19-1.47.13-.88-.27-1.41-1.11-1.54-3.11-.48-6.22-.92-9.32-1.38Z"/><path class="cls-1" d="M21.75,35.37c.26.36.53.63.65.94.07.19,0,.54-.14.68-.15.15-.49.23-.7.18-.64-.16-1.37-.27-1.86-.65-.49-.38-.81-1.03-1.1-1.62-.25-.5-.22-1.19-.56-1.58-3.32-3.9-6.71-7.74-10.04-11.64-.29-.34-.27-.96-.39-1.45.47.2,1.08.28,1.39.63,3.28,3.7,6.51,7.44,9.76,11.17.29.33.59.66.99,1.09,1.44-2.13,3.35-3.73,4.05-6.32.47-1.75,1.69-3.29,2.68-5.13,1.43,1.5,1.66,2.92,1.52,4.38-.39.21-.94.33-.98.54-.65,3.58-3.14,6.06-5.27,8.77Z"/><path class="cls-1" d="M31.5,33.4h-4.24c0-1.92,0-3.79,0-5.65,0-.17.01-.42.12-.51,2.22-1.8.72-3.57-.02-5.34-.03-.08-.05-.16-.07-.24,2.17-1.16,4.44-.21,4.75,2.11.11.83-.35,1.71-.37,2.58-.07,2.19-.03,4.39-.04,6.59,0,.13-.07.25-.13.48Z"/><path class="cls-1" d="M37.44,15.28c-3.25-1.59-6.51-1.55-9.76-.01-.5-1.88.49-4.85,1.97-5.86,1.59-1.09,4.15-1.11,5.75-.04,1.48.99,2.52,3.96,2.04,5.91Z"/><path class="cls-1" d="M37.19,21.08c-.65,4.34-1.24,8.28-1.85,12.29h-3.28c0-2.76-.32-5.58.13-8.27.24-1.46,1.71-2.78,2.82-3.98.32-.34,1.32-.05,2.17-.05Z"/><path class="cls-1" d="M26.58,40.75c.23-2.31.45-4.49.67-6.74h7.99c-.36,2.43-.72,4.79-1.07,7.16-.06,0-.13,0-.19,0-.17-1.55-.34-3.1-.52-4.72h-1.81c-.17,1.54-.34,3.08-.53,4.77-1.51-.16-2.95-.3-4.54-.47Z"/><path class="cls-1" d="M25.97,47.52c1.68.18,3.02.32,4.64.49-.25,2.03-.38,4.03-.78,5.98-.22,1.08-1.23,1.52-2.32,1.41-1.05-.11-1.92-.74-1.93-1.76-.02-2,.24-4,.39-6.12Z"/><path class="cls-1" d="M34.92,49.37c1.38.2,2.53.39,3.68.51.68.07,1.08.3,1.1,1.05.02.76.16,1.52.15,2.28-.01,1.19-.81,2.04-1.95,2.2-1.18.16-2.27-.52-2.49-1.74-.25-1.35-.32-2.74-.48-4.29Z"/><path class="cls-1" d="M26.02,46.58c.15-1.63.29-3.12.45-4.85,1.5.14,2.93.27,4.52.41-.13,1.63-.25,3.17-.38,4.91-1.48-.15-2.95-.31-4.59-.47Z"/><path class="cls-1" d="M36.39,15.17c.39,1.62-.2,2.95-1.45,3.82-1.43,1-3.37.99-4.79-.01-1.24-.88-1.84-2.24-1.47-3.72.93,1.53,1.96,2.81,3.8,2.82,1.87.02,3.01-1.12,3.92-2.91Z"/><path class="cls-1" d="M30.61,20.86h3.86c-.7.97-1.28,1.77-1.95,2.69-.66-.93-1.21-1.71-1.91-2.69Z"/><path class="cls-1" d="M24.6,42.5c.12-1.11.18-1.96.33-2.8.04-.23.36-.4.55-.6.17.26.5.52.5.77,0,.85-.07,1.71-.23,2.55-.06.29-.43.53-.66.79-.2-.29-.39-.57-.48-.7Z"/><path class="cls-1" d="M28.74,18.92c.31.37.51.6.71.84-.61.34-1.21.72-1.85.97-.15.06-.47-.34-.71-.52.57-.4,1.15-.8,1.85-1.28Z"/><path class="cls-1" d="M36.93,20.85c-.47-.47-.87-.86-1.26-1.25.28-.13.59-.41.85-.37.69.1,1.19.43.41,1.62Z"/><path class="cls-1" d="M32.47,15.46s.05-.05.07-.08c-.03.02-.06.03-.1.05,0,0,.02.03.02.03Z"/><path class="cls-1" d="M32.44,15.44s.07,0,.1.01c-.03,0-.05,0-.07.01,0,0-.02-.03-.02-.03Z"/></g></svg>