<?xml version="1.0" encoding="UTF-8"?><svg id="Layer_1" xmlns="http://www.w3.org/2000/svg" viewBox="0 0 64 64"><defs><style>.cls-1{fill:#000;stroke-width:0px;}</style></defs><path class="cls-1" d="M36.49,15.7h16.73c0,.49,0,.94,0,1.4,0,9.7,0,19.4,0,29.09,0,1.59-.13,1.7-1.76,1.71-4.6,0-9.21,0-13.81.03-.98,0-1.35-.31-1.34-1.31.04-4.23.02-8.47.01-12.7,0-.8.17-1.43,1.16-1.56.09.29.13.59.27.83.09.15.37.33.5.29.18-.06.43-.32.42-.48-.07-1.38.87-1.88,1.93-2.28,1.1-.42,2.21-.83,3.33-1.25-1.03-2.07-2.29-2.72-4.35-2.48-.55.06-1.13-.13-1.77-.21-.22.6-.21,1.5-1.32,1.51v-12.6Z"/><path class="cls-1" d="M33.14,31.78c.21.62.47,1.24-.28,1.72-.81.52-2.23.5-2.95-.2-.5-.49-.84-1.12-1.34-1.81-.36,1.17-.83,2.24-.97,3.36-.07.55.36,1.29.79,1.74.81.87,1.77,1.6,2.68,2.37.68.57.92,1.23.64,2.12-.59,1.9-1.11,3.81-1.68,5.71-.28.91-.82,1.55-1.89,1.38-1.01-.15-1.5-.97-1.22-2.14.28-1.16.62-2.3.99-3.43.55-1.66.5-1.88-.78-2.77-1.5,2.36-2.99,4.73-4.51,7.08-.25.38-.6.9-.96.96-.57.09-1.31,0-1.77-.31-.67-.47-.62-1.27-.19-1.95.9-1.44,1.79-2.89,2.76-4.28.58-.83.61-1.54.02-2.37-.55-.76-1-1.59-1.47-2.4-.18-.31-.37-.65-.42-.99-.26-1.73-.59-3.47-.64-5.21-.03-1.03.27-2.15.69-3.11.56-1.27,1.89-1.86,3.26-1.58,1.56.32,3.12.67,4.61,1.19.61.21,1.16.83,1.53,1.4.34.52.44,1.21.61,1.84.45,1.66.44,1.66,2.11,1.49.13.07.26.14.39.2Z"/><path class="cls-1" d="M14.67,25.07c1.33,1.69,1.84,3.66,1.96,5.75.09,1.55.03,3.11.06,4.67.01.66-.18,1.19-.92,1.21-.76.03-1.09-.44-1.11-1.17-.06-1.74-.11-3.47-.21-5.21-.04-.69-.21-1.38-.31-2.07-.1,0-.21.01-.31.02,0,.37,0,.74,0,1.1,0,5.61,0,11.22-.02,16.83,0,.39.04.9-.17,1.15-.36.42-.93.96-1.38.93-.52-.03-1.11-.55-1.46-1.01-.24-.32-.17-.9-.18-1.37-.01-3,0-6.01-.01-9.01,0-.41-.05-.82-.08-1.23-.11,0-.21-.02-.32-.02-.04.35-.11.7-.11,1.05-.02,2.97-.02,5.94-.03,8.9,0,.36,0,.73-.03,1.08-.11.96-.89,1.69-1.7,1.62-.7-.06-1.47-.94-1.48-1.76-.02-3.8-.05-7.6.02-11.4.01-.55.42-1.23.86-1.61,2.32-2.07,4.09-4.48,4.93-7.51.46-1.64.49-1.64,2.05-.9l-.04-.04Z"/><path class="cls-1" d="M6.92,33.08v-4.24c-.13-.02-.26-.03-.39-.05-.18,1.03-.44,2.06-.52,3.09-.09,1.15-.03,2.31,0,3.47.02.69-.14,1.28-.92,1.34-.83.06-1.1-.48-1.15-1.24-.16-2.68-.16-5.35.72-7.93.81-2.38,1.93-3.15,4.44-3.09.65.02,1.31.04,1.95,0,1.02-.08,1.15.38.92,1.25-.5,1.93-1.43,3.61-2.7,5.13-.66.79-1.33,1.58-2,2.37-.12-.03-.24-.06-.36-.09Z"/><path class="cls-1" d="M7.6,21.37c.76-.24,1.54-.48,2.26-.7-1.16-.1-2.34-.16-3.5-.33-.3-.04-.56-.44-.83-.67.28-.19.53-.46.83-.56,1.1-.36,2.2-.71,3.32-.98,1.68-.41,3.04.39,3.43,1.96.41,1.63-.53,3.16-2.15,3.58-1.21.32-3.13-.43-3.37-2.3Z"/><path class="cls-1" d="M28.04,24.58c.4.24.82.44,1.18.73.21.17.48.61.42.7-.18.25-.57.58-.8.53-1.3-.27-2.61-.59-3.87-1.02-.29-.1-.58-.67-.59-1.03-.07-2.1,2.23-3.56,4.12-2.61,1.13.57,2.2,1.25,3.27,1.91.22.13.46.45.44.66-.02.18-.38.41-.62.46-.38.08-.79.07-1.17,0-.78-.14-1.54-.34-2.31-.52-.02.06-.04.11-.07.17Z"/><path class="cls-1" d="M14.71,25.11c-.74-.41-1.48-.82-2.11-1.17,1.27-.76,3.57-.18,4.86,1.36,1.64,1.95,1.5,6.35-.16,7.57-.3-1.69-.54-3.36-.91-5-.25-1.1-.5-2.27-1.72-2.8,0,0,.04.04.04.04Z"/><path class="cls-1" d="M33.14,31.78c-.13-.07-.26-.14-.39-.2-.23-.16-.47-.32-.86-.59,1.1-.52,2.11-1,3.12-1.48,1.31-.61,2.61-1.24,3.94-1.82,1.99-.87,3.1-.49,4.15,1.64-.25-.13-.58-.2-.74-.41-.97-1.25-1.66-1.45-3.06-.8-1.57.74-3.15,1.46-4.68,2.27-.37.19-.55.72-.86,1.05-.15.16-.41.22-.62.33Z"/><path class="cls-1" d="M55.18,21.32v-1.01h4.87c.04.35.07.68.08.79-1.65,1.52-3.24,2.11-4.96.22ZM55.42,20.7v.37h1.84c0-.12,0-.25,0-.37h-1.84Z"/><path class="cls-1" d="M33.89,17.26c-.24.27-.43.6-.72.81-.66.49-1.16,1.38-2.2,1.01-.36-.13-.69-.34-1.03-.51.25-.27.56-.5.75-.81.74-1.16,1.87-.73,2.89-.78.1.09.21.19.31.28Z"/><path class="cls-1" d="M41.78,29.08c-.98.46-1.9.9-2.83,1.35-.41-1.13-.1-1.81.94-2.22.91-.36,1.42.04,1.89.87Z"/><path class="cls-1" d="M20.99,22.89c-.56.03-1.13.09-1.69.07-.22,0-.53-.11-.63-.27-.11-.18-.1-.52,0-.71.41-.72,2.4-1.44,3.28-1.17.21.06.49.35.5.55.01.2-.23.47-.43.63-.33.27-.71.48-1.07.71,0,.07.02.14.02.2ZM20.18,21.13c0,.14,0,.28,0,.43h1.88c0-.14,0-.28,0-.43h-1.88ZM19.02,22.08c0,.11,0,.22.01.33.96.59,1.48.5,1.94-.44-.7.04-1.33.07-1.95.1Z"/><path class="cls-1" d="M37.29,29.18c.65,1.68.49,2-1.11,2.24.39-.79.69-1.4,1.11-2.24Z"/></svg>