<?xml version="1.0" encoding="UTF-8"?><svg id="Layer_1" xmlns="http://www.w3.org/2000/svg" viewBox="0 0 64 64"><defs><style>.cls-1{fill:#000;stroke-width:0px;}</style></defs><g id="jcEjyk.tif"><path class="cls-1" d="M46.78,46.56c-6.76-1.82-13.39-3.6-20.07-5.4-.17.35-.33.56-.37.79-.77,4.67-3.3,3.91-6.65,2.7-1.45-.52-1.76-1.88-1.36-3.28.56-2.03.75-4.02.69-6.17-.07-2.15.8-4.36,1.47-6.47.24-.74,1.01-1.63,1.73-1.84,2.79-.82,3.94-3.23,5.56-5.21.94-1.15,1.89-2.35,3.05-3.23,2.15-1.62,4.68-2,7.28-1.33,3.5.89,6.97,1.84,10.45,2.82,4.06,1.14,6.19,3.93,6.7,8.05.14,1.17.26,2.35.41,3.52.2,1.58.5,3.02,1.54,4.43.78,1.06,1.12,2.84.9,4.17-.4,2.39-.77,4.87-2.81,6.75-.79.73-.85,2.27-1.2,3.46-.77,2.68-1.72,3.15-4.78,2.35-2.88-.75-3.53-1.71-2.92-4.31.13-.53.24-1.06.4-1.79ZM50.69,32.68c-.26-1.9-.18-3.48-.73-4.79-.48-1.13-1.51-2.45-2.59-2.83-3.33-1.15-6.79-2.03-10.25-2.71-1.12-.22-2.69.16-3.59.86-1.26.98-2.08,2.52-3.27,4.05,6.93,1.84,13.51,3.59,20.43,5.43ZM54.7,40.06c-.44-.94-.56-1.8-.98-1.98-1-.44-2.32-1.03-3.18-.7-1.2.46-2.13,1.67-3.11,2.63-.1.1.14.87.35.93,1.56.48,3.14,1.14,4.72,1.15.74,0,1.48-1.32,2.21-2.03ZM29.98,34.37c-.84-1.26-1.5-2.59-2.49-3.6-.93-.95-2.38-.92-3.11.19-.55.84-.74,2.18-.53,3.18.24,1.14,3.83,2.28,4.91,1.71.41-.21.65-.77,1.21-1.48Z"/><path class="cls-1" d="M11.99,24.43c-1.75-2.21-3.3-4.17-4.84-6.13.12-.23.24-.46.36-.69,1.52.27,3.04.5,4.55.8,3.29.66,3.26.67,3.54-2.73.13-1.53.38-3.06.57-4.58.23-.04.46-.08.69-.12,1.1,1.61,2.28,3.17,3.27,4.84.83,1.4,1.57,1.47,2.72.37,1.12-1.07,2.36-2.02,3.59-2.97.3-.24.76-.28,1.14-.42.13.38.4.78.36,1.14-.52,4.49-2.75,7.84-6.47,10.44-1.54,1.08-2.92,2.73-3.71,4.43-.89,1.92-.75,4.31-1.61,6.25-.57,1.3-2.1,2.18-3.2,3.25-.22-.48-.67-.99-.61-1.43.22-1.6.59-3.17.96-4.74.29-1.25-.1-1.87-1.43-1.94-1.43-.07-2.86-.19-4.27-.4-.6-.09-1.16-.44-1.74-.68.44-.47.81-1.03,1.33-1.4,1.5-1.08,3.05-2.09,4.81-3.28Z"/></g></svg>