<?xml version="1.0" encoding="UTF-8"?><svg id="Layer_1" xmlns="http://www.w3.org/2000/svg" viewBox="0 0 64 64"><defs><style>.cls-1{fill:#000;stroke-width:0px;}</style></defs><g id="_7ev40D.tif"><path class="cls-1" d="M36.94,44.73c.15-2.26.29-4.46.45-6.67.14-1.96.72-2.36,2.57-1.7,3.15,1.13,6.27,2.33,9.4,3.5.38.14.77.24,1.26.09-.29-.12-.57-.26-.86-.37-3.33-1.19-5.34-4.47-4.81-7.88.54-3.45,3.47-6.04,6.93-6.12,3.46-.08,6.56,2.37,7.25,5.74.7,3.41-1.1,6.84-4.42,8.08-1.04.39-1.24.88-1.21,1.84.06,2.06.02,4.12.02,6.38,1.03-.07,1.83-.29,2.55-.12.6.14,1.1.73,1.64,1.12-.44.51-.79,1.3-1.33,1.46-1.21.35-2.51.44-3.78.53-1.09.08-1.69-.5-1.69-1.63,0-1.15,0-2.3,0-3.66-3.18.96-6.12,1.84-9.06,2.72.79,2.21.67,2.46-1.48,3.23-1.5.53-3.03,1.01-4.52,1.57-.91.35-1.76.16-1.93-.71-.1-.53.53-1.27.97-1.8.24-.28.82-.26,1.15-.5.3-.22.71-.82.65-.89-.69-.82-1.4-1.64-2.25-2.28-.31-.23-1.09-.12-1.49.12-3.87,2.19-8.32,1.04-10.29-2.71-1.52-2.89-.92-6.38,1.47-8.59,2.33-2.15,5.85-2.53,8.59-.93,2.75,1.61,4.14,5.02,3.22,8.11-.29.97-.5,1.73,1.01,2.05ZM50.7,36.82c0-1.14.01-2.23,0-3.32-.02-1.03.14-2.07,1.41-2.05,1.12.02,1.37.97,1.35,1.96-.02,1.09,0,2.17,0,3.32,2.17-.62,3.31-2.45,3.02-4.54-.31-2.2-2.16-3.83-4.37-3.84-2.18-.01-4.06,1.53-4.4,3.61-.37,2.27.69,4.08,3,4.85ZM31.43,44.36c-.97-.77-1.89-1.39-2.67-2.14-.46-.43-1.08-1.17-.97-1.6.15-.56.89-1.07,1.49-1.37.97-.48,2.04-.77,3.11-1.16-1.56-1.95-3.91-2.31-5.85-1.01-1.94,1.3-2.5,3.87-1.38,5.88,1.1,1.98,4.14,2.98,6.27,1.4ZM39.67,45.84c3.32-1,6.33-1.9,9.34-2.81.01-.12.03-.23.04-.35-2.93-1.1-5.86-2.2-9-3.38-.13,2.21-.25,4.19-.38,6.53Z"/><path class="cls-1" d="M34.31,23.54c-.83,1.02-1.58,1.97-2.35,2.9-2.57,3.1-6.39,3.58-9.64,1.21-.51-.38-1.06-.72-1.5-1.17-2.02-2.07-4.2-3.01-7.03-1.46-.51.28-1.59-.02-2.16-.41-2.05-1.42-3.99-2.99-5.97-4.5-.94-.72-1.29-1.64-.53-2.61.78-1,1.78-.75,2.68-.07,1.31.99,2.6,2.01,3.91,3.01,1.7,1.3,4.33,1,5.72-.66.68-.82,1.31-1.67,1.98-2.49,1.58-1.95,3.08-1.96,4.9.06-.51.26-.99.5-1.71.87,2.59.24,4.71.24,5.64-2.51.32-.93.96-1.77,1.5-2.61.57-.88,1.41-1.2,2.33-.64.89.54,1.12,1.4.59,2.34-1.07,1.89-2.1,3.82-3.31,5.62-.37.55-1.26.94-1.96,1.05-1.52.24-3.07.25-4.65.66,1.93.32,3.85.79,5.8.88.69.03,1.64-.72,2.11-1.37,2.61-3.63,2.62-3.66,6.37-1.19,1.99,1.31,3.99,2.62,5.98,3.94,1.55,1.03,1.97,2.16,1.25,3.27-.73,1.13-1.94,1.2-3.49.18-2.12-1.39-4.22-2.8-6.44-4.28Z"/><path class="cls-1" d="M14.25,10.98c2.01,0,3.74,1.73,3.75,3.77,0,2.04-1.7,3.74-3.76,3.74-2.05,0-3.73-1.68-3.72-3.75,0-2.07,1.68-3.75,3.73-3.76Z"/></g></svg>