<?xml version="1.0" encoding="UTF-8"?><svg id="Layer_1" xmlns="http://www.w3.org/2000/svg" viewBox="0 0 64 64"><defs><style>.cls-1{fill:#000;}.cls-1,.cls-2{stroke-width:0px;}.cls-2{fill:#fff;}</style></defs><g id="CKSkKE.tif"><path class="cls-2" d="M34.33,25.23c-.33-.91-.66-1.87-1.03-2.8-.08-.19-.33-.43-.52-.44-1.04-.09-2.11-.29-3.12-.14-3.38.52-6.04,2.26-8.02,5.06-1.23,1.73-2.5,3.44-3.74,5.16-.13.19-.21.43-.25.66-.1.66-.17,1.32-.25,1.98-.27,2.19-.53,4.39-.83,6.58-.1.72-.14,1.54-.51,2.11-1.35,2.1-2.84,4.1-4.25,6.16-.45.65-.98,1.3-1.19,2.03-.33,1.16.34,2.27,1.39,2.68,1.12.45,2.2.1,2.93-.95,1.65-2.35,3.3-4.69,4.94-7.05.35-.5.79-1.01.94-1.58.52-1.95.94-3.93,1.38-5.9.23-1.01.22-1.01,1.26-.99.26,0,.53-.05.78,0,.18.03.41.14.51.29.86,1.22,1.68,2.47,2.56,3.68.68.93,1.42,1.82.82,3.08-.02.03,0,.08-.01.12-.26,1.38-.54,2.75-.78,4.13-.18,1.01-.4,2.02-.46,3.04-.07,1.17.86,2.13,2.08,2.33.95.15,2.18-.53,2.43-1.54.43-1.71.73-3.44,1.06-5.17.25-1.32.42-2.66.72-3.97.18-.81.16-1.52-.26-2.24-1.24-2.13-2.45-4.28-3.69-6.42-.2-.34-.17-.62.05-.92.53-.72,1.05-1.45,1.58-2.18.49-.68.46-.69-.07-1.31-1.14-1.33-2.28-2.67-3.36-4.05-.51-.65-.44-1.29-.03-1.7.49.66.97,1.35,1.5,2,1.27,1.57,2.51,3.18,4.15,4.4,1.5,1.12,3.17.47,3.63-1.04.75-2.46,1.49-4.93,2.15-7.42.15-.56.11-1.27-.11-1.8-.34-.81-1.15-1.12-2.01-.91-.85.21-1.25.85-1.45,1.67-.28,1.16-.62,2.31-.9,3.35ZM34.26,21.19c.2-.31.45-.65.62-1.02.06-.13,0-.44-.12-.52-.45-.33-.91-.67-1.42-.89-1.85-.82-3.69-1.71-5.6-2.34-1.93-.64-3.93-1.23-5.94-1.46-1.87-.22-3.82-.07-5.7.16-2.18.27-4.1,1.28-5.77,2.73-2.01,1.76-3.47,3.87-4.3,6.43-.54,1.66-.56,3.26.19,4.84,1.05,2.23,2.91,3.43,5.23,3.97,1.62.38,3.25.38,4.58-.75.96-.82,1.8-1.81,2.57-2.81,1.17-1.51,2.1-3.23,3.37-4.64,2.45-2.72,5.55-4.22,9.27-4.17,1.01.01,2.01.32,3.02.49ZM24.71,14c.04.08.07.16.11.24.35-.04.71-.09,1.06-.12,1.1-.1,2.19-.25,3.29-.28.74-.02,1.48.13,2.22.17,1.79.11,3.57.19,5.36.31,1.19.08,1.19.11,1.04-1.09-.12-.97-.34-1.16-1.29-1.13-.3.01-.6.03-.9.05-2.17.14-4.33.29-6.5.41-.16,0-.39-.04-.48-.15-.89-1.04-3.21-.52-4.21.34.64.14,1.21.27,1.87.41-.61.33-1.08.58-1.56.84ZM38.65,27.36c-.38,1.23-.74,2.42-1.13,3.69,1.9,0,3.7.07,5.5-.03,1.06-.06,1.68-.95,1.61-1.95-.06-.93-.82-1.67-1.85-1.7-1.35-.04-2.69-.01-4.14-.01ZM28.32,14.35c.16.58.03,1.14.59,1.35,2.03.73,4.01,1.55,5.86,2.67.2.12.57.07.82-.02.25-.08.48-.28.68-.47.83-.8,1.47-1.71,1.53-2.97-3.16-.19-6.26-.37-9.47-.56ZM45.82,29c.1,0,.25,0,.38-.03.61-.19,1.21-.52,1.83-.03.05.04.16.02.24.02.84,0,1.69.03,2.53.02.54,0,.76-.25.64-.77-.27-1.13-.56-2.25-.91-3.35-.07-.21-.55-.52-.67-.45-.93.49-1.97.92-2.69,1.65-.53.54-1.11.56-1.68.79-.22.09-.43.18-.59.24.31.64.6,1.24.92,1.92ZM36.92,11.59c-.63-1.37-2.83-2.31-4.49-2.01-1.58.29-3.17,1.49-3.27,2.49,2.57-.16,5.13-.32,7.76-.48ZM53.2,25.93c.63.23,4.72-.87,5.09-1.33-.49-.3-4.68.77-5.09,1.33ZM52.36,23.95c.1-.05.17-.08.24-.13,1.14-.86,2.29-1.72,3.42-2.59.09-.07.07-.28.1-.42-.14,0-.31-.04-.41.02-.55.39-1.09.8-1.63,1.21-.59.45-1.18.89-1.75,1.36-.1.08-.15.25-.18.39,0,.04.14.11.21.16ZM58.31,29.08c.01-.1.03-.19.04-.29-.18-.08-.36-.19-.56-.22-1.31-.18-2.63-.34-3.95-.48-.16-.02-.33.11-.5.18.14.11.26.28.42.3.91.16,1.82.3,2.73.4.6.07,1.2.07,1.81.11Z"/><path class="cls-1" d="M34.33,25.23c.28-1.05.61-2.2.9-3.35.2-.82.6-1.46,1.45-1.67.86-.21,1.67.1,2.01.91.22.53.26,1.24.11,1.8-.66,2.49-1.4,4.96-2.15,7.42-.46,1.51-2.13,2.15-3.63,1.04-1.64-1.22-2.88-2.83-4.15-4.4-.53-.65-1-1.34-1.5-2-.4.41-.47,1.05.03,1.7,1.08,1.38,2.22,2.72,3.36,4.05.53.62.56.64.07,1.31-.53.73-1.05,1.46-1.58,2.18-.22.3-.24.58-.05.92,1.24,2.13,2.45,4.28,3.69,6.42.42.72.44,1.44.26,2.24-.3,1.31-.47,2.65-.72,3.97-.33,1.73-.63,3.47-1.06,5.17-.25,1.01-1.48,1.7-2.43,1.54-1.22-.2-2.15-1.17-2.08-2.33.06-1.02.28-2.03.46-3.04.25-1.38.52-2.76.78-4.13,0-.04,0-.09.01-.12.6-1.26-.14-2.14-.82-3.08-.88-1.21-1.7-2.46-2.56-3.68-.1-.15-.33-.25-.51-.29-.25-.05-.52,0-.78,0-1.05-.02-1.03-.02-1.26.99-.44,1.97-.86,3.95-1.38,5.9-.15.57-.59,1.08-.94,1.58-1.64,2.35-3.29,4.7-4.94,7.05-.74,1.05-1.81,1.4-2.93.95-1.04-.42-1.72-1.53-1.39-2.68.21-.73.74-1.38,1.19-2.03,1.41-2.06,2.9-4.06,4.25-6.16.37-.58.41-1.39.51-2.11.3-2.19.56-4.38.83-6.58.08-.66.15-1.32.25-1.98.04-.23.12-.48.25-.66,1.24-1.73,2.52-3.43,3.74-5.16,1.98-2.8,4.64-4.53,8.02-5.06,1.01-.16,2.08.05,3.12.14.19.02.44.25.52.44.38.94.7,1.89,1.03,2.8Z"/><path class="cls-1" d="M34.26,21.19c-1.01-.17-2.01-.47-3.02-.49-3.72-.06-6.83,1.45-9.27,4.17-1.27,1.41-2.2,3.13-3.37,4.64-.77,1-1.61,1.99-2.57,2.81-1.33,1.13-2.96,1.12-4.58.75-2.33-.54-4.19-1.75-5.23-3.97-.74-1.58-.72-3.18-.19-4.84.83-2.56,2.29-4.67,4.3-6.43,1.66-1.45,3.59-2.46,5.77-2.73,1.88-.23,3.83-.37,5.7-.16,2.01.23,4.01.81,5.94,1.46,1.92.64,3.75,1.53,5.6,2.34.51.22.97.56,1.42.89.11.08.18.39.12.52-.17.37-.42.71-.62,1.02ZM16.63,20.1c-.14-.11-.25-.21-.36-.28-.67-.43-.71-.43-1.15.23-.17.26-.32.38-.63.25-.12-.05-.28-.06-.41-.04-1.54.24-2.67,2.18-1.49,3.63.33.4.7.76,1.01,1.18.38.51.29,1.04-.16,1.57-.42.51-.88.41-1.38.16-.55-.29-.89-.82-.6-1.33.41-.73-.11-.86-.52-1.06-.13-.07-.49.04-.55.16-.41.76-.4,1.56.07,2.29.27.42.37.74.09,1.21-.39.65.38.56.62.81.26.26.41.05.52-.21.15-.4.41-.55.87-.51,1.04.11,1.83-.35,2.3-1.27.46-.9.37-1.79-.25-2.6-.36-.47-.76-.91-1.1-1.4-.33-.46.07-.79.32-1.1.25-.3.57-.36.96-.14.81.46.93.78.54,1.8.23.14.48.26.7.43.29.23.44.16.58-.17.36-.86.37-1.66-.25-2.43-.1-.13-.08-.4-.04-.59.04-.18.18-.35.31-.58Z"/><path class="cls-1" d="M24.71,14c.47-.25.94-.51,1.56-.84-.66-.15-1.24-.27-1.87-.41.99-.86,3.32-1.39,4.21-.34.09.11.32.16.48.15,2.17-.13,4.34-.27,6.5-.41.3-.02.6-.04.9-.05.95-.03,1.17.16,1.29,1.13.15,1.2.16,1.18-1.04,1.09-1.79-.12-3.57-.2-5.36-.31-.74-.05-1.48-.2-2.22-.17-1.1.04-2.19.18-3.29.28-.36.03-.71.08-1.06.12-.04-.08-.07-.16-.11-.24Z"/><path class="cls-1" d="M38.65,27.36c1.44,0,2.79-.03,4.14.01,1.03.03,1.78.77,1.85,1.7.07.99-.55,1.89-1.61,1.95-1.8.1-3.6.03-5.5.03.39-1.27.75-2.46,1.13-3.69Z"/><path class="cls-1" d="M28.32,14.35c3.22.19,6.32.37,9.47.56-.06,1.25-.7,2.16-1.53,2.97-.2.19-.43.39-.68.47-.25.08-.62.14-.82.02-1.85-1.12-3.83-1.94-5.86-2.67-.56-.2-.43-.76-.59-1.35Z"/><path class="cls-1" d="M45.82,29c-.33-.68-.61-1.28-.92-1.92.16-.07.38-.15.59-.24.57-.23,1.15-.25,1.68-.79.72-.73,1.75-1.16,2.69-1.65.12-.06.61.24.67.45.35,1.1.64,2.23.91,3.35.12.52-.1.76-.64.77-.84,0-1.69-.01-2.53-.02-.08,0-.19.02-.24-.02-.62-.49-1.22-.16-1.83.03-.13.04-.28.03-.38.03Z"/><path class="cls-1" d="M36.92,11.59c-2.63.16-5.19.32-7.76.48.09-1,1.69-2.21,3.27-2.49,1.66-.3,3.86.64,4.49,2.01Z"/><path class="cls-1" d="M53.2,25.93c.41-.55,4.6-1.63,5.09-1.33-.36.46-4.46,1.56-5.09,1.33Z"/><path class="cls-1" d="M52.36,23.95c-.08-.05-.22-.13-.21-.16.03-.14.08-.31.18-.39.57-.46,1.17-.91,1.75-1.36.54-.41,1.08-.82,1.63-1.21.09-.07.27-.02.41-.02-.03.14-.01.35-.1.42-1.13.88-2.28,1.73-3.42,2.59-.06.05-.14.08-.24.13Z"/><path class="cls-1" d="M58.31,29.08c-.6-.03-1.21-.04-1.81-.11-.91-.11-1.83-.25-2.73-.4-.15-.03-.28-.2-.42-.3.17-.06.34-.19.5-.18,1.32.14,2.63.31,3.95.48.19.03.37.14.56.22-.01.1-.03.19-.04.29Z"/><path class="cls-2" d="M16.63,20.1c-.13.23-.27.39-.31.58-.04.19-.06.46.04.59.61.77.6,1.57.25,2.43-.14.33-.28.4-.58.17-.22-.17-.47-.29-.7-.43.39-1.02.27-1.33-.54-1.8-.39-.22-.71-.17-.96.14-.25.3-.65.63-.32,1.1.34.48.74.93,1.1,1.4.61.81.71,1.7.25,2.6-.47.92-1.26,1.38-2.3,1.27-.46-.05-.72.11-.87.51-.1.26-.26.47-.52.21-.24-.24-1.01-.15-.62-.81.28-.47.18-.79-.09-1.21-.46-.73-.48-1.53-.07-2.29.07-.13.42-.23.55-.16.41.2.93.33.52,1.06-.29.51.05,1.04.6,1.33.49.26.95.35,1.38-.16.44-.53.54-1.06.16-1.57-.31-.41-.68-.78-1.01-1.18-1.18-1.45-.05-3.38,1.49-3.63.13-.02.29-.02.41.04.31.14.46.02.63-.25.43-.67.48-.66,1.15-.23.12.07.22.17.36.28Z"/></g></svg>